<svg id="Layer_1" data-name="Layer 1" xmlns="http://www.w3.org/2000/svg" viewBox="0 0 441.14002 500"><title>black-monogram</title><path d="M377.9609,377.08523c-5.81179,33.52867-21.018,51.86253-42.92306,51.86253-20.11948,0-30.85024-14.75125-30.85024-43.82156V241.60575h67.51227l2.23487-11.62357H304.18759V158.89867h-5.75314c-8.96967,51.97768-44.52315,79.933-111.31606,79.933-11.473,0-34.4189.03514-45.89187.04016-22.82065.01-34.90484-6.26672-34.90484-21.47859,0-12.53344,12.5306-21.47859,24.16555-25.51045,12.08135,4.92467,25.95117,7.60878,42.95718,7.60878,56.38059,0,87.25643-32.66429,87.25643-72.93736,0-14.76831-4.029-28.63812-12.5306-40.27307,4.92182-6.261,13.42625-14.31906,23.7163-14.31906,10.29289,0,16.11037,5.81747,16.11037,14.31906,0,7.60878-2.23771,12.0842-8.05518,16.11037v.89281c16.55677,0,36.69331-7.15953,36.69331-29.53093,0-15.66112-10.29289-25.50476-29.08737-25.50476-20.58294,0-33.55995,20.5801-42.06153,34.4556-15.21471-18.35092-40.27307-29.08737-72.04171-29.08737-55.93419,0-86.81,32.66429-86.81,72.93736,0,25.0612,12.977,48.77466,37.58611,62.20091-21.925,5.81747-43.40359,20.5801-43.40359,42.95718,0,27.29607,23.7163,40.71663,48.77466,43.40075-38.03536,4.47542-63.98937,21.47859-63.98937,48.3311,0,40.71663,57.72549,57.27625,106.0509,57.27625,36.92788,0,70.24223-9.05071,93.18834-25.19022v30.938c0,43.378,21.90509,65.28309,56.7815,65.28309,40.239,0,56.33794-31.74305,59.91487-74.66611ZM173.44441,61.22566c30.87583,0,45.6413,29.98018,45.6413,65.32859s-14.76547,65.32859-45.6413,65.32859c-30.42943,0-45.19489-29.98018-45.19489-65.32859S143.015,61.22566,173.44441,61.22566ZM171.2067,372.21885c-39.82667,0-69.80685-19.693-69.80685-51.46446,0-30.42374,21.47859-45.192,57.27625-45.192h49.22106c35.35125,0,54.14573,12.52776,54.14573,42.50794C262.04289,350.73457,227.5873,372.21885,171.2067,372.21885Z" fill="#231f20"/><path d="M117.00081,407.15234v-1.14324H92.76566a10.57736,10.57736,0,0,1-3.94307-.52458l-.97759-.4346-1.34776,12.71476h0c2.39167-3.96335,4.98-5.44729,9.99879-5.44729h13.93368l-1.3089,1.83758c-7.561,10.61234-12.88656,20.46695-14.29363,34.06726l-.09817.952,8.00067-.74751v-.71581c0-11.88341,1.43366-21.39443,8.57127-32.07016Z" fill="#231f20"/><path d="M166.97362,436.63026c-3.05956,5.117-6.96582,5.74383-13.78029,5.74383h-7.48324c14.00526-11.71366,20.17142-17.89107,20.17142-25.50622,0-7.20306-5.7469-11.85784-14.64131-11.85784-7.471,0-13.10334,4.79283-13.10334,11.14817,0,4.75091,3.123,8.06816,7.59573,8.06816a4.81177,4.81177,0,0,0,5.036-5.00553h0s-.53094.53379-2.31182.53379c-2.6219,0-4.18849-1.83144-4.18849-4.89918,0-4.4155,2.73642-7.2685,6.972-7.2685,6.00664,0,7.26646,5.11188,7.26646,9.39956,0,7.157-3.36633,13.78438-21.76255,30.14465l-.26383.35279v1.13813h28.5668l1.92654-11.9918Z" fill="#231f20"/><path d="M210.63083,421.41222c-4.663,0-8.38107,1.92552-10.58371,5.38082.00409-8.81055,2.90208-19.08748,11.05614-19.08748,3.624,0,5.96573,1.96949,5.96573,5.0178,0,1.40707-.67286,2.82641-2.17605,2.82641a4.32724,4.32724,0,0,1-2.0278-.41414h0a4.556,4.556,0,0,0,4.752,4.709c3.19863,0,5.52193-2.49714,5.52193-5.9371,0-5.15585-5.06177-8.89747-12.03577-8.89747-10.643,0-18.07513,9.42921-18.07513,22.93136,0,10.24523,5.06382,21.27274,16.18131,21.27274,8.44856,0,14.582-5.98312,14.582-14.22614C223.79144,424.96773,216.70291,421.41222,210.63083,421.41222Zm-1.59932,3.11069c6.34818,0,7.68162,5.72338,7.68162,10.5244,0,3.41337-.71376,11.35269-7.32577,11.35269-7.51392,0-8.09679-8.68989-8.09679-11.35269C201.29058,428.65413,204.32969,424.52291,209.03152,424.52291Z" fill="#231f20"/></svg>