<?xml version="1.0" encoding="utf-8"?>
<!-- Generator: Adobe Illustrator 21.1.0, SVG Export Plug-In . SVG Version: 6.00 Build 0)  -->
<svg version="1.1" id="Layer_1" xmlns="http://www.w3.org/2000/svg" xmlns:xlink="http://www.w3.org/1999/xlink" x="0px" y="0px"
	 viewBox="0 0 400 400" style="enable-background:new 0 0 400 400;" xml:space="preserve">
<style type="text/css">
	.st0{fill:#231F20;}
	.st1{fill:#F1F2F2;}
</style>
<title>black-social-icon</title>
<rect class="st0" width="400" height="400"/>
<path id="gt_circle" class="st1" d="M199.997757,88.0000076C138.141861,88.0012512,87.9987564,138.1463623,88,200.0022583
	S138.1463623,312.0012512,200.002243,312S312.0012207,261.8536987,312,199.9978333
	C311.9295044,138.170639,261.8249512,88.0680618,199.997757,88.0000076z M199.997757,307.6045532
	c-59.42836-0.0011597-107.6036148-48.1782837-107.6024475-107.6066589S140.5736237,92.3942871,200.0019836,92.3954544
	c59.4266663,0.0011673,107.6012268,48.1756973,107.6024475,107.6023788
	C307.539032,259.400238,259.400177,307.539093,199.997757,307.6045532z M241.524353,267.2586365
	c-7.3846588,0-11.3232422-5.4143982-11.3232422-16.084259v-52.6779633h24.779541l0.8205261-4.2663574h-25.6000671v-26.0904388
	h-2.1118011c-3.2919769,19.0779266-16.0040741,29.3387146-40.8572845,29.3387146
	c-5.3182678,0-12.6333771,0.0147247-16.8444061,0.0147247c-8.375946,0-12.8116302-2.3001404-12.8116302-7.8835602
	c0-4.6003418,4.5994568-7.8835602,8.8699036-9.3633728c5.0210419,1.958252,10.3789368,2.9072723,15.7671356,2.7927704
	c20.6936188,0,32.0265198-11.9892426,32.0265198-26.7709808c0.0924072-5.2930603-1.52005-10.4754944-4.5991974-14.7817535
	c1.806488-2.2980957,4.9279785-5.2558441,8.7049255-5.2558441c3.7779541,0,5.9131775,2.1352386,5.9131775,5.2558441
	c0.2113037,2.3714294-0.9327087,4.6593323-2.9567108,5.9130554v0.3278351c6.0769501,0,13.4678955-2.6280365,13.4678955-10.8392029
	c0-5.7483368-3.7779541-9.3611832-10.6763916-9.3611832c-7.5544586,0-12.3176727,7.5535507-15.4381561,12.6465225
	c-5.5844421-6.7356415-14.7816315-10.6763306-26.4420624-10.6763306c-20.5301208,0-31.8630066,11.9893036-31.8630066,26.7710571
	c-0.0177155,9.5870056,5.3001709,18.3875122,13.7956238,22.8302612
	c-8.0472107,2.1352386-15.9308777,7.5535583-15.9308777,15.7668915c0,10.0187378,8.7049255,14.94487,17.9023895,15.9299316
	c-13.9604034,1.6426697-23.4868164,7.8835602-23.4868164,17.739502c0,14.9446106,21.1878204,21.0226593,38.9252014,21.0226593
	c13.5541687,0,25.7819366-3.322052,34.2037811-9.2458649v11.3556061c0,15.9214172,8.0402069,23.9613953,20.8414459,23.9613953
	c14.7690887,0,20.6781616-11.6509705,21.9909363-27.4055328h-1.3127747
	c-2.1330414,12.3063812-7.7145996,19.0358429-15.7545624,19.0358429L241.524353,267.2586365z M182.2130432,132.2895966
	c11.3324127,0,16.7521362,11.0038605,16.7521362,23.9782867s-5.419693,23.9782257-16.7521362,23.9782257
	c-11.1688995,0-16.5883789-11.0038605-16.5883789-23.9782257S171.0441437,132.2895966,182.2130432,132.2895966z
	 M181.3915558,246.436615c-14.6178741,0-25.6220551-7.22789-25.6220551-18.8893585
	c0-11.1667175,7.8836975-16.5872192,21.0230865-16.5872192h18.0658722c12.9754028,0,19.8735809,4.5979919,19.8735809,15.6018524
	C214.7320404,238.551178,202.0856323,246.436615,181.3915558,246.436615z"/>
</svg>
