<svg id="Layer_1" data-name="Layer 1" xmlns="http://www.w3.org/2000/svg" viewBox="0 0 300 300"><title>black-circle-mark</title><path id="gt_circle" data-name="gt circle" d="M149.99784,36.795A113.205,113.205,0,1,0,263.20512,149.99781,113.33209,113.33209,0,0,0,149.99784,36.795Zm0,221.96729a108.76227,108.76227,0,1,1,108.7644-108.76447A108.88443,108.88443,0,0,1,149.99784,258.76227Zm41.97339-40.78c-7.46411,0-11.44507-5.47266-11.44507-16.25732V148.48023h25.04614l.82935-4.31226H180.52616V117.79682h-2.13452c-3.32739,19.2832-16.17627,29.65436-41.29687,29.65436-5.37549,0-12.76929.01489-17.02563.01489-8.46606,0-12.94946-2.32489-12.94946-7.96838,0-4.64984,4.64893-7.96838,8.96533-9.46411a41.43726,41.43726,0,0,0,15.93677,2.82281c20.91626,0,32.37109-12.11823,32.37109-27.059a24.93883,24.93883,0,0,0-4.64868-14.9408c1.82593-2.32281,4.981-5.31238,8.79858-5.31238,3.8186,0,5.97681,2.1582,5.97681,5.31238a6.36581,6.36581,0,0,1-2.98853,5.97668v.33136c6.14233,0,13.61279-2.65631,13.61279-10.95581,0-5.81018-3.8186-9.46191-10.79126-9.46191-7.63574,0-12.4502,7.63483-15.60425,12.78259-5.64453-6.80811-14.94067-10.7912-26.72656-10.7912-20.751,0-32.20581,12.11829-32.20581,27.05908A25.98665,25.98665,0,0,0,113.76,128.87329c-8.13379,2.1582-16.10229,7.63483-16.10229,15.93652,0,10.12653,8.79858,15.10565,18.095,16.10132-14.1106,1.66034-23.7395,7.96838-23.7395,17.93036,0,15.10541,21.41577,21.24884,39.344,21.24884,13.7,0,26.05933-3.35779,34.57178-9.34534v11.47778c0,16.09271,8.12671,24.21918,21.06567,24.21918,14.928,0,20.90063-11.77631,22.22754-27.70038h-1.3269C205.7393,211.18036,200.0977,217.98224,191.97123,217.98224ZM132.02177,81.5611c11.45435,0,16.93237,11.12225,16.93237,24.23627s-5.478,24.23621-16.93237,24.23621c-11.28906,0-16.76685-11.12225-16.76685-24.23621S120.73271,81.5611,132.02177,81.5611Zm-.83032,115.37512c-14.77515,0-25.89771-7.30566-25.89771-19.09259,0-11.28687,7.96851-16.76569,21.24927-16.76569h18.26025c13.115,0,20.0874,4.64746,20.0874,15.76971C164.89066,188.96595,152.10819,196.93622,131.19145,196.93622Z" fill="#231f20"/></svg>