<svg id="Layer_1" data-name="Layer 1" xmlns="http://www.w3.org/2000/svg" viewBox="0 0 200 200"><title>black-726</title><path d="M100,28.01112a73.5,73.5,0,1,0,73.5,73.5A73.5,73.5,0,0,0,100,28.01112ZM85.60327,141.6888h-26.958v-1.074l.249-.33295c17.36011-15.43884,20.53687-21.69293,20.53687-28.4469,0-4.0462-1.18872-8.87018-6.85718-8.87018-3.99683,0-6.57935,2.69232-6.57935,6.85913,0,2.895,1.47852,4.62323,3.95264,4.62323a3.24416,3.24416,0,0,0,1.89917-.50372s.21,4.72363-4.47,4.72363c-4.2207,0-7.168-3.13043-7.168-7.61377,0-5.99738,5.31543-10.52032,12.36548-10.52032,8.39355,0,13.81665,4.39264,13.81665,11.19006,0,7.18628-5.81885,13.01575-19.03516,24.0697H79.60864c4.26025,0,7.81274-5.42035,7.81274-5.42035ZM106.1499,90.81935l-7.55.70538.09253-.89838c1.32788-12.83441,6.35352-22.134,13.48877-32.14868l1.23511-1.73407H97.84814c-4.73633,0-7.0166,5.1405-7.0166,5.1405l1.272-11.99866.92236.4101a9.98279,9.98279,0,0,0,3.72119.49506h22.87012v1.07886l-5.37891,8.01038c-6.73535,10.07446-8.08838,19.04987-8.08838,30.264Zm20.44434,51.42816c-10.49146,0-15.27-10.40643-15.27-20.07471,0-12.7417,7.01343-21.63989,17.05713-21.63989,6.58105,0,11.35791,3.53094,11.35791,8.39642,0,3.24622-2.19238,5.60272-5.21094,5.60272-4.55,0-4.20923-4.44379-4.20923-4.44379a3.47473,3.47473,0,0,0,1.63843.39081c1.41846,0,2.05347-1.33942,2.05347-2.66724,0-2.87665-2.20972-4.73517-5.62964-4.73517-7.69482,0-10.42969,9.69812-10.43359,18.01245,2.07861-3.26068,5.5874-5.07776,9.98779-5.07776,5.73,0,12.41943,3.35529,12.41943,12.81122C140.355,136.6014,134.56689,142.24751,126.59424,142.24751Z" fill="#231f20"/><path d="M126.42627,118.94685c-4.437,0-7.30493,3.89856-7.30493,9.9317,0,2.51282.55,10.71332,7.64087,10.71332,6.2395,0,6.91309-7.49219,6.91309-10.71332C133.67529,124.34792,132.417,118.94685,126.42627,118.94685Z" fill="#231f20"/></svg>