<svg id="Layer_1" data-name="Layer 1" xmlns="http://www.w3.org/2000/svg" viewBox="0 0 1000 403.50268"><title>black-wordmark</title><path d="M415.13257,189.71009c-22.74523,0-36.35226-19.08989-36.35226-46.10239h71.08082c0-27.82306-12.79388-47.31847-42.03925-47.31847-25.59,0-47.32089,20.91772-47.32089,51.3816,0,32.4931,21.93468,51.3816,47.93006,51.3816,22.34,0,38.17993-12.18713,42.03925-33.91541l-1.21834-.40778C443.361,181.58625,430.3633,189.71009,415.13257,189.71009ZM407.6179,100.35c19.294,0,22.94937,18.27933,22.94937,38.99308h-51.3816C380.20021,115.37929,393.1979,100.35,407.6179,100.35Z" fill="#231f20"/><path d="M515.66015,96.28924c-18.07535,0-28.6362,17.0584-33.10469,36.14845V98.31847H452.09417v.40778c9.74754,4.06071,12.58975,10.1529,12.58975,21.7307v54.42778c0,13.40305-1.82767,17.66757-11.57522,21.73086v.4052h47.11692v-.4052c-11.5778-3.454-17.67016-8.32781-17.67016-21.73086V151.32619c0-23.76235,11.98316-43.86693,25.794-43.86693,6.9055,0,10.96621,3.8569,10.96621,9.34234a9.38017,9.38017,0,0,1-6.09236,9.13853c1.01453,1.42231,3.65535,2.64082,6.70153,2.64082,6.49755,0,14.62139-4.87644,14.62139-16.04645C534.54623,102.787,526.42239,96.28924,515.66015,96.28924Z" fill="#231f20"/><path d="M718.64521,174.88473V98.3183H654.97457V63.38852h-1.6237c-2.84479,20.10458-13.40305,35.53912-30.4642,38.99308v1.2185H637.103v65.8016c0,19.69922,9.95151,29.65073,25.79157,29.65073,18.27917,0,25.58986-14.42,27.21631-33.91541h-1.62645c-2.64082,15.23073-9.54373,23.55612-19.49525,23.55612-9.14079,0-14.01465-6.70153-14.01465-19.90077V103.6001h29.0267a16.73921,16.73921,0,0,1,16.77206,16.62623q.00048.11507.00048.23078v54.42761c0,13.40305-1.828,17.66757-11.57554,21.73086v.40536H730.223v-.40536C720.47288,192.5523,718.64521,188.28778,718.64521,174.88473Z" fill="#231f20"/><path d="M708.49214,76.18224A12.59276,12.59276,0,1,0,695.696,63.59233,12.44649,12.44649,0,0,0,708.49214,76.18224Z" fill="#231f20"/><path d="M783.11881,96.28924c-29.04156,0-49.75531,21.73086-49.75531,51.3816s20.71375,51.3816,49.75531,51.3816,49.75773-21.73086,49.75773-51.3816S812.16037,96.28924,783.11881,96.28924Zm0,98.70006c-18.68226,0-29.65073-20.91772-29.65073-47.31847,0-26.40317,10.96847-47.32089,29.65073-47.32089,18.68469,0,29.65073,20.91772,29.65073,47.32089C812.76954,174.07158,801.8035,194.98931,783.11881,194.98931Z" fill="#231f20"/><path d="M932.79237,174.88473V131.627c0-23.357-12.99769-35.33773-31.6798-35.33773-17.46618,0-30.26249,11.17-35.74551,30.26007V98.31847H834.90561v.40778c9.7477,4.06071,12.58991,10.1529,12.58991,21.7307v54.42778c0,13.40305-1.82767,17.66757-11.57538,21.73086v.4052h41.02472v-.4052c-9.75013-4.06329-11.5778-8.32781-11.5778-21.73086V145.03c0-23.15318,11.77919-38.58772,28.027-38.58772,16.04371,0,21.52689,12.38836,21.52689,26.80853v41.63389c0,13.40305-1.82767,17.66757-11.57538,21.73086v.4052h41.02472v-.4052C934.6202,192.5523,932.79237,188.28778,932.79237,174.88473Z" fill="#231f20"/><path d="M143.36579,244.70021m-37.49951.04683c22.81438,0,55.40961-9.8236,55.40961-35.622v-2.37177c-.55345-16.88641-14.16351-26.68918-38.34284-26.68918H90.48985c-10.4071,0-15.91532-2.85577-15.91532-9.79341,0-5.714,5.71154-9.79583,11.0174-11.63174a50.95864,50.95864,0,0,0,19.58827,3.469c25.711,0,39.791-14.89594,39.791-33.25973a30.66215,30.66215,0,0,0-5.7138-18.36541c2.24434-2.85626,7.66955-7.15,13.41323-7.15,8.677,0,14.509,7.57523,10.02241,18.07519-.19461.37807-.36482.77455-.55055,1.15972-.20349.41521-.38695.82493-.62258,1.24838l.33947-.61531a56.51075,56.51075,0,0,0-5.16762,24.01122c0,32.64878,22.0382,51.62546,48.15729,51.62546,22.445,0,38.36033-12.24414,42.23887-34.07723l-1.225-.40746c-5.91729,16.93582-18.97571,25.0981-34.27959,25.0981-22.85538,0-36.52506-19.18016-36.52506-46.31928h71.41592c0-27.95533-12.85493-47.54359-42.2366-47.54359a45.87049,45.87049,0,0,0-30.02525,11.12028c.616-7.47995-5.70153-13.56859-13.75043-13.56859-10.54873,0-18.55226,9.38659-22.42967,15.71135-6.93764-8.3656-18.36314-13.263-32.85211-13.263-25.50556,0-39.58432,14.89481-39.58432,33.26022a31.93915,31.93915,0,0,0,17.14028,28.36295c-9.99916,2.65228-19.79386,9.38659-19.79386,19.58811,0,12.44763,10.81521,18.56873,22.24281,19.79321-17.3449,2.041-29.18045,9.79422-29.18045,22.03658,0,18.56889,26.32242,26.118,48.36061,26.118Zm98.1658-145.07877c19.38575,0,23.0587,18.36541,23.0587,39.17751H175.46516C176.48566,114.76883,189.54521,99.66827,204.03208,99.66827Zm-38.4246,16.7606h.05426c-.08075.12-.16925.2311-.24887.35223Zm-60.42727-17.372c14.07989,0,20.8142,13.671,20.8142,29.7914,0,16.1188-6.73431,29.79075-20.8142,29.79075-13.87447,0-20.60878-13.67195-20.60878-29.79075C84.57143,112.72781,91.30574,99.05684,105.1802,99.05684ZM72.32906,217.4046c0-13.8743,9.79454-20.60813,26.11893-20.60813h22.44517c16.11864,0,24.68951,5.71332,24.68951,19.38365,0,14.89659-15.712,24.69064-41.42088,24.69064C85.99988,240.87076,72.32906,231.89324,72.32906,217.4046Z" fill="#231f20"/><path d="M614.80934,169.65235a1.4342,1.4342,0,0,1-.01486-.155c.12161-11.03775.58026-23.20373.58026-38.88746,0-24.16755-15.84264-34.32061-42.24323-34.32061-20.91756,0-35.13392,11.77935-35.13392,24.97843,0,9.34218,6.49772,14.8252,14.82553,14.8252,5.88822,0,10.56085-3.046,11.57538-9.13821a6.23286,6.23286,0,0,1-2.64082.60917c-5.68683,0-9.34234-4.46849-9.34234-10.76224,0-8.937,5.687-16.653,20.71617-16.653,16.653,0,23.55854,12.58991,23.55854,27.41528v11.5778l-15.43454,2.84221c-24.16787,4.46865-47.11724,9.54632-47.11724,31.2746,0,17.061,12.794,25.18483,28.83791,25.18483,17.06082,0,31.68238-13.20166,33.91509-27.4177,0,2.23287.40811,8.937.40811,9.74754,1.01437,10.76466,7.10672,17.87154,18.07535,17.87154a24.5201,24.5201,0,0,0,11.586-2.765l-.00081-.00048C619.2977,191.50482,614.84455,182.74549,614.80934,169.65235Zm-18.52706-9.797c-.4052,18.88866-12.99785,29.65089-25.79157,29.65089-9.74754,0-17.26237-4.87385-17.26237-18.2769,0-14.42,9.74787-21.73086,29.8547-25.59019l13.607-2.64066Z" fill="#231f20"/><path d="M260.94095,119.86926v54.6852c0,13.4683-1.83575,17.75252-11.62964,21.83422v.40762h41.21691v-.40762c-9.79405-4.0817-11.62964-8.36593-11.62964-21.83422V144.55958c0-23.26219,11.83491-38.76989,28.15768-38.76989,16.12058,0,21.63041,12.44779,21.63041,26.935v41.82979c0,13.4683-1.837,17.75252-11.6311,21.83422v.40762h41.21691v-.40762c-9.79389-4.0817-11.62964-8.36593-11.62964-21.83422V131.0929c0-23.466-13.05906-35.50472-31.83193-35.50472-17.54855,0-30.404,11.222-35.91234,30.40235V97.62758H248.2908v.40907C258.08485,102.1169,260.94095,108.23817,260.94095,119.86926Z" fill="#231f20"/><path d="M392.42023,326.30236,371.73943,294.472l14.19181-18.04483c9.531-11.96152,14.801-17.841,25.54577-23.92336v-.40568H384.91767v.40568c2.63565,1.62209,3.85205,3.447,3.85205,6.08234,0,4.66245-3.44637,10.3404-7.5,15.61138l-12.36688,16.01609-10.54454-16.21893c-3.44508-5.271-7.9063-11.15048-7.70346-16.21958a5.70952,5.70952,0,0,1,2.83849-5.2713v-.40568H315.987v.40568c10.542,6.28486,16.21764,11.15048,24.53092,23.92336l16.01738,24.53253-19.87008,25.34261c-3.6841,4.70347-6.73447,8.43634-9.71056,11.59783-5.60269,5.95153-15.59943,2.02648-15.81454-6.14468q-.01453-.58478-.0155-1.19573v-78.4616h-30.4101v.40568c9.73123,4.05554,12.57037,10.13756,12.57037,21.69372v29.80286c0,23.113-12.97605,38.11517-28.78995,38.11517-15.206,0-20.6808-13.38109-20.6808-26.9647v-63.1251l-.00129.00032.00129-.011H185.66646V217.10281h-1.624c-2.84172,20.09424-18.68921,35.52119-35.73824,38.97144v1.21737h19.49993v65.7643c0,19.68888,9.94635,29.63426,25.77833,29.63426,18.26673,0,25.5742-14.41112,27.19822-33.89652h-1.624c-2.63953,15.22281-9.54,23.54578-19.487,23.54578-9.133,0-14.00318-6.69862-14.00318-19.89237V257.29162l23.415.05162a16.83934,16.83934,0,0,1,16.892,16.62387q.00038.11486.00038.23045V317.3812c0,23.31613,12.97541,35.27765,30.81513,35.27765,17.84231,0,31.62908-11.35429,36.496-31.425v29.39686h44.39454v-.405a7.66058,7.66058,0,0,1-3.8527-6.69054c0-4.86562,4.05554-10.33976,7.7054-15.00318l17.83973-23.11232,15.40951,23.31484c3.44637,5.27227,7.50191,11.35429,7.7054,16.2199a5.70892,5.70892,0,0,1-2.83978,5.2713v.405h37.50762v-.405C406.612,343.94086,400.93506,339.07524,392.42023,326.30236Z" fill="#231f20"/></svg>