<svg id="Layer_1" data-name="Layer 1" xmlns="http://www.w3.org/2000/svg" viewBox="0 0 400 400"><title>white-social-icon</title><rect width="400" height="400" fill="#f1f2f2"/><path d="M291.73241,270.39286c-3.2649,18.83545-11.8073,29.13489-24.113,29.13489-11.30255,0-17.33079-8.28683-17.33079-24.61771v-80.6257h37.92647l1.25548-6.52979h-39.182V147.82186h-3.232c-5.03891,29.19958-25.01184,44.90411-62.5342,44.90411-6.44519,0-19.33556.01974-25.78075.02256-12.82.00561-19.60855-3.52047-19.60855-12.06606,0-7.04093,7.03933-12.06606,13.57552-14.331,6.787,2.76654,14.57863,4.2744,24.13212,4.2744,31.673,0,49.01818-18.34987,49.01818-40.97414a37.765,37.765,0,0,0-7.03933-22.62427c2.76494-3.51727,7.54249-8.044,13.32314-8.044,5.78225,0,9.05035,3.26809,9.05035,8.044,0,4.2744-1.25708,6.78856-4.52517,9.05035v.50155c9.30112,0,20.61326-4.022,20.61326-16.58964,0-8.798-5.78225-14.32785-16.34046-14.32785-11.56291,0-18.853,11.56131-23.629,19.35617-8.54719-10.309-22.62427-16.34046-40.471-16.34046-31.42224,0-48.7674,18.34987-48.7674,40.97414,0,14.07867,7.29011,27.40022,21.11481,34.9427-12.31684,3.26809-24.3829,11.56131-24.3829,24.13212,0,15.33415,13.32314,22.87345,27.40022,24.3813-21.36718,2.51416-35.94741,12.06606-35.94741,27.151,0,22.87345,32.42854,32.17617,59.57638,32.17617,20.745,0,39.46009-5.08443,52.35056-14.15115V275.664c0,24.36853,12.30566,36.67418,31.89823,36.67418,22.6051,0,31.64905-17.83234,33.65847-41.9453ZM176.84086,92.95195c17.34516,0,25.64,16.842,25.64,36.69974s-8.29482,36.69974-25.64,36.69974c-17.09439,0-25.38921-16.842-25.38921-36.69974S159.74648,92.95195,176.84086,92.95195Zm-1.25708,174.70712c-22.37349,0-39.2155-11.063-39.2155-28.91127,0-17.09119,12.06606-25.38761,32.17617-25.38761h27.651c19.85933,0,30.41753,7.03774,30.41753,23.87975C226.613,255.58981,207.2568,267.65907,175.58378,267.65907Z" fill="#231f20"/><path d="M145.13246,287.28371v-.64224H131.51784a5.94206,5.94206,0,0,1-2.2151-.2947l-.54918-.24414-.75713,7.14279h0c1.34357-2.2265,2.7976-3.06013,5.617-3.06013H141.441l-.7353,1.0323c-4.24753,5.96171-7.2393,11.49775-8.02975,19.138l-.05515.53482,4.49455-.41993v-.40212c0-6.67576.80539-12.01878,4.81509-18.01611Z" fill="#231f20"/><path d="M173.20576,303.84357c-1.71877,2.87458-3.9132,3.22672-7.74138,3.22672h-4.20387c7.86776-6.5804,11.33173-10.05069,11.33173-14.32867,0-4.04647-3.22845-6.6614-8.22507-6.6614-4.197,0-7.36109,2.69248-7.36109,6.26273a4.21462,4.21462,0,0,0,4.26706,4.53246,2.70312,2.70312,0,0,0,2.82907-2.812h0s-.29826.29987-1.29872.29987c-1.47291,0-2.353-1.02885-2.353-2.75222a3.75042,3.75042,0,0,1,3.91664-4.08324c3.37436,0,4.08209,2.87171,4.08209,5.2804,0,4.02062-1.89111,7.74367-12.22558,16.9344l-.14821.19819v.63937h16.048l1.08228-6.73665Z" fill="#231f20"/><path d="M197.73114,295.29451a6.7257,6.7257,0,0,0-5.94563,3.02279c.0023-4.94952,1.63031-10.72281,6.211-10.72281,2.03587,0,3.35138,1.1064,3.35138,2.81886,0,.79045-.378,1.5878-1.22244,1.5878a2.43092,2.43092,0,0,1-1.13916-.23265h0a2.55942,2.55942,0,0,0,2.66951,2.64537,3.11936,3.11936,0,0,0,3.10207-3.33529c0-2.89641-2.84356-4.99835-6.76135-4.99835-5.97894,0-10.15409,5.29706-10.15409,12.88219,0,5.75548,2.84471,11.95042,9.0902,11.95042a7.82841,7.82841,0,0,0,8.19175-7.99184C205.12439,297.29189,201.14226,295.29451,197.73114,295.29451Zm-.89845,1.7475c3.56623,0,4.31532,3.21523,4.31532,5.91231,0,1.91754-.401,6.37762-4.11541,6.37762-4.22111,0-4.54855-4.88173-4.54855-6.37762C192.48405,299.36281,194.19134,297.042,196.83269,297.042Z" fill="#231f20"/></svg>