<svg id="Layer_1" data-name="Layer 1" xmlns="http://www.w3.org/2000/svg" viewBox="0 0 175 500"><title>white-george-tag</title><path d="M71.41881,456.68951a4.85781,4.85781,0,0,1-1.12794.13852l-1.12794-.05937a8.77459,8.77459,0,0,1,2.65165,6.25315,6.40171,6.40171,0,0,1-1.79085,4.60279,5.41807,5.41807,0,0,1-4.38314,1.61078,6.58094,6.58094,0,0,1-5.3132-2.98014,12.67655,12.67655,0,0,1-1.90958-7.30985l.01979-3.74-1.70181-.23746a3.90759,3.90759,0,0,0-3.03752.744,3.5687,3.5687,0,0,0-1.15762,2.81787,5.51419,5.51419,0,0,0,.90037,3.25322,3.82257,3.82257,0,0,0,2.48345,1.73347l.01979,3.6015a5.734,5.734,0,0,1-3.33435-1.46434A8.529,8.529,0,0,1,50.354,462.349a10.69181,10.69181,0,0,1-.76185-4.17536,7.09831,7.09831,0,0,1,2.02831-5.20436,6.295,6.295,0,0,1,5.17468-1.56329l10.6066,1.74138,1.52371.09894a7.37638,7.37638,0,0,0,2.15694-.23746l.3364.03958Zm-2.77038,5.61992a6.2663,6.2663,0,0,0-.82122-3.25718,8.27146,8.27146,0,0,0-2.38451-2.63978l-4.41282-.77175-.01979,2.711a10.26556,10.26556,0,0,0,1.06858,5.18457,3.93877,3.93877,0,0,0,3.02763,2.03821,3.057,3.057,0,0,0,2.50324-.70447A3.337,3.337,0,0,0,68.64843,462.30943Z" fill="#fff"/><path d="M60.67369,437.21769a17.39515,17.39515,0,0,1-6.08494-1.89177,9.86835,9.86835,0,0,1-3.81917-3.44319,7.96121,7.96121,0,0,1-1.17741-4.44053,6.5874,6.5874,0,0,1,2.81-5.61992l-2.3944-.71238V417.825l20.956,3.56192a10.42971,10.42971,0,0,1,6.55987,3.32446,9.36271,9.36271,0,0,1,2.34493,6.78743,9.65535,9.65535,0,0,1-1.029,4.16744,7.927,7.927,0,0,1-2.711,3.13449l-2.19652-2.03821a6.4224,6.4224,0,0,0,1.52371-9.447,7.35048,7.35048,0,0,0-4.2743-2.34691l-1.89969-.39577a8.09638,8.09638,0,0,1,2.53292,6.11463,6.31151,6.31151,0,0,1-1.07847,3.47485,6.56894,6.56894,0,0,1-2.94848,2.28359,11.99739,11.99739,0,0,1-4.304.89048A21.63944,21.63944,0,0,1,60.67369,437.21769Zm2.02634-3.463a7.56386,7.56386,0,0,0,4.3772-.97755,3.71218,3.71218,0,0,0,1.63057-3.13845q.08014-3.20573-3.1424-5.521l-9.823-1.682a4.50162,4.50162,0,0,0-3.04346,4.29409,5.56193,5.56193,0,0,0,2.37263,4.78089,12.39544,12.39544,0,0,0,6.61923,2.20443Z" fill="#fff"/><path d="M71.81458,406.7435a7.72134,7.72134,0,0,1-2.94848,6.25315,10.14676,10.14676,0,0,1-7.34151,1.89969l-.8509-.09894a14.25424,14.25424,0,0,1-5.8178-1.89177,10.94887,10.94887,0,0,1-3.96758-3.78751,8.84177,8.84177,0,0,1-1.27635-4.82838,6.813,6.813,0,0,1,2.19652-5.18457,9.02452,9.02452,0,0,1,5.73865-2.058,16.93859,16.93859,0,0,1,2.5725.07915l1.64244.21767v13.99042a7.22663,7.22663,0,0,0,4.94711-.96172,4.53945,4.53945,0,0,0,2.11736-3.926A7.613,7.613,0,0,0,65.977,400.5893l1.74138-2.058a9.41942,9.41942,0,0,1,3.03752,3.47485A9.83849,9.83849,0,0,1,71.81458,406.7435ZM52.6,404.46783a5.23986,5.23986,0,0,0,1.50392,3.87062,10.69177,10.69177,0,0,0,4.65028,2.62l.01979-10.40872-.31661-.07915a5.8718,5.8718,0,0,0-4.14568.79945A3.775,3.775,0,0,0,52.6,404.46783Z" fill="#fff"/><path d="M49.612,383.09632a7.713,7.713,0,0,1,1.46434-4.61071,8.30323,8.30323,0,0,1,3.928-2.83766,12.10819,12.10819,0,0,1,5.4715-.62531l.43535.03958a14.38254,14.38254,0,0,1,5.6496,1.86011,10.89857,10.89857,0,0,1,3.928,3.839,9.367,9.367,0,0,1,1.32583,5.16478,7.74142,7.74142,0,0,1-1.46434,4.60279,8.15022,8.15022,0,0,1-3.87853,2.81787,12.51188,12.51188,0,0,1-5.40224.63323,14.60741,14.60741,0,0,1-5.97611-1.80075,11.16826,11.16826,0,0,1-4.1061-3.86666A9.25766,9.25766,0,0,1,49.612,383.09632Zm11.47729,7.28214a12.33373,12.33373,0,0,0,2.59229,0,6.35823,6.35823,0,0,0,3.72023-1.39311,4.18987,4.18987,0,0,0,1.44456-3.19781,5.69868,5.69868,0,0,0-.88059-3.28488,7.39818,7.39818,0,0,0-2.83964-2.53292,11.98458,11.98458,0,0,0-4.21494-1.32583,18.682,18.682,0,0,0-3.06721-.05937,6.59978,6.59978,0,0,0-3.77959,1.44456A4.27727,4.27727,0,0,0,52.6,383.23484a5.83749,5.83749,0,0,0,2.17673,4.70965,10.75134,10.75134,0,0,0,5.85738,2.3944Z" fill="#fff"/><path d="M53.27281,359.05337l-.1781,1.682a6.12585,6.12585,0,0,0,3.10678,5.422l15.21731,2.63186V372.371l-21.41109-3.72023-.01979-3.463,2.49334.53429a6.39691,6.39691,0,0,1-2.9089-5.36267,6.57875,6.57875,0,0,1,.29683-1.70181Z" fill="#fff"/><path d="M60.67369,358.20247a17.39516,17.39516,0,0,1-6.08494-1.89177,9.86835,9.86835,0,0,1-3.81917-3.44319,7.96121,7.96121,0,0,1-1.17741-4.44053,6.5874,6.5874,0,0,1,2.81-5.61992l-2.3944-.71238V338.8098l20.956,3.56192a10.42971,10.42971,0,0,1,6.55987,3.32446,9.36271,9.36271,0,0,1,2.34493,6.78743,9.65535,9.65535,0,0,1-1.029,4.16744,7.927,7.927,0,0,1-2.711,3.13449l-2.19652-2.03821a6.4224,6.4224,0,0,0,1.52371-9.447,7.35048,7.35048,0,0,0-4.2743-2.34691l-1.89969-.39577a8.09638,8.09638,0,0,1,2.53292,6.11463,6.31151,6.31151,0,0,1-1.07847,3.47485,6.56894,6.56894,0,0,1-2.94848,2.28359,11.99739,11.99739,0,0,1-4.304.89048A21.63945,21.63945,0,0,1,60.67369,358.20247Zm2.02634-3.463a7.56386,7.56386,0,0,0,4.3772-.97755,3.71218,3.71218,0,0,0,1.63057-3.13845q.08014-3.20573-3.1424-5.521l-9.823-1.682a4.50162,4.50162,0,0,0-3.04346,4.29409,5.56193,5.56193,0,0,0,2.37263,4.78089,12.39544,12.39544,0,0,0,6.61923,2.20443Z" fill="#fff"/><path d="M71.81458,327.72828a7.72134,7.72134,0,0,1-2.94848,6.25315,10.14676,10.14676,0,0,1-7.34151,1.89969l-.8509-.09894a14.25424,14.25424,0,0,1-5.8178-1.89177,10.94887,10.94887,0,0,1-3.96758-3.78751,8.84177,8.84177,0,0,1-1.27635-4.82838,6.813,6.813,0,0,1,2.19652-5.18457,9.02452,9.02452,0,0,1,5.73865-2.058,16.93857,16.93857,0,0,1,2.5725.07915l1.64244.21767v13.99042a7.22663,7.22663,0,0,0,4.94711-.96172,4.53945,4.53945,0,0,0,2.11736-3.926,7.613,7.613,0,0,0-2.84953-5.85738l1.74138-2.058a9.41942,9.41942,0,0,1,3.03752,3.47485A9.83849,9.83849,0,0,1,71.81458,327.72828ZM52.6,325.45261a5.23986,5.23986,0,0,0,1.50392,3.87062,10.69177,10.69177,0,0,0,4.65028,2.62l.01979-10.40872-.31661-.07915a5.8718,5.8718,0,0,0-4.14568.79945A3.775,3.775,0,0,0,52.6,325.45261Z" fill="#fff"/><path d="M68.43075,302.0231V289.99173l2.98805.53429v16.50356l-2.86932-.49471-15.51413-14.03v11.18047l-3.02763-.55408v-15.7516l2.77038.47492Z" fill="#fff"/><path d="M42.19129,279.52364a1.95336,1.95336,0,0,1,.54418-1.51184,2.0343,2.0343,0,0,1,1.5336-.60553,2.11518,2.11518,0,0,1,2.15694,2.11736,1.97588,1.97588,0,0,1-.53429,1.52371,1.94051,1.94051,0,0,1-1.50392.57386,2.23514,2.23514,0,0,1-1.5435-.59365A2.08806,2.08806,0,0,1,42.19129,279.52364Zm29.22752,2.94848V286.034l-21.41109-3.72023V278.7519Z" fill="#fff"/><path d="M49.98793,269.55027l2.3944.45513A8.36971,8.36971,0,0,1,49.612,263.495a6.59194,6.59194,0,0,1,.93006-3.4511,4.55111,4.55111,0,0,1,2.51313-1.95114,8.83859,8.83859,0,0,1-3.44319-7.104,5.66516,5.66516,0,0,1,2.15694-4.72944,7.6923,7.6923,0,0,1,5.58034-1.12794l14.06958,2.35482v3.56192l-14.10916-2.335a7.4544,7.4544,0,0,0-1.8799,0q-2.69222.374-2.75059,3.52234a5.40866,5.40866,0,0,0,1.217,3.55,5.62138,5.62138,0,0,0,3.29477,2.05008l14.22789,2.434v3.6015l-14.08937-2.37461a4.54825,4.54825,0,0,0-3.38382.66093,3.49328,3.49328,0,0,0-1.22688,2.86141,5.86344,5.86344,0,0,0,3.04742,5.32309l15.65265,2.711v3.58171l-21.41109-3.72023Z" fill="#fff"/><path d="M49.98793,234.90072l2.3944.45513a8.36971,8.36971,0,0,1-2.77038-6.5104,6.59194,6.59194,0,0,1,.93006-3.4511,4.55112,4.55112,0,0,1,2.51313-1.95114,8.83859,8.83859,0,0,1-3.44319-7.104,5.66516,5.66516,0,0,1,2.15694-4.72944,7.6923,7.6923,0,0,1,5.58034-1.12794l14.06958,2.35482v3.56192l-14.10916-2.335a7.45439,7.45439,0,0,0-1.8799,0q-2.69222.374-2.75059,3.52234a5.40866,5.40866,0,0,0,1.217,3.55,5.62138,5.62138,0,0,0,3.29477,2.05008l14.22789,2.434v3.6015l-14.08937-2.37461a4.54825,4.54825,0,0,0-3.38382.66093,3.49328,3.49328,0,0,0-1.22688,2.86141,5.86344,5.86344,0,0,0,3.04742,5.32309l15.65265,2.711V241.985l-21.41109-3.72023Z" fill="#fff"/><path d="M71.81458,198.05465a7.72134,7.72134,0,0,1-2.94848,6.25315,10.14676,10.14676,0,0,1-7.34151,1.89969l-.8509-.09894a14.25424,14.25424,0,0,1-5.8178-1.89177,10.94887,10.94887,0,0,1-3.96758-3.78751,8.84177,8.84177,0,0,1-1.27635-4.82838,6.813,6.813,0,0,1,2.19652-5.18457,9.02452,9.02452,0,0,1,5.73865-2.058,16.93859,16.93859,0,0,1,2.5725.07915l1.64244.21767v13.99042a7.22663,7.22663,0,0,0,4.94711-.96172,4.53945,4.53945,0,0,0,2.11736-3.926,7.613,7.613,0,0,0-2.84953-5.85738l1.74138-2.058a9.41942,9.41942,0,0,1,3.03752,3.47485A9.83849,9.83849,0,0,1,71.81458,198.05465ZM52.6,195.779a5.23986,5.23986,0,0,0,1.50392,3.87062,10.69177,10.69177,0,0,0,4.65028,2.62l.01979-10.40872-.31661-.07915a5.8718,5.8718,0,0,0-4.14568.79945A3.775,3.775,0,0,0,52.6,195.779Z" fill="#fff"/><path d="M53.27281,172.9827l-.1781,1.682a6.12585,6.12585,0,0,0,3.10678,5.422l15.21731,2.63186v3.58171L50.00772,182.5801l-.01979-3.463,2.49334.53429a6.39691,6.39691,0,0,1-2.9089-5.36267,6.57875,6.57875,0,0,1,.29683-1.70181Z" fill="#fff"/><path d="M121.531,460.74614a5.43976,5.43976,0,0,0-1.118-3.463,5.31962,5.31962,0,0,0-3.03752-2.01842l-.01979-3.38382a7.62573,7.62573,0,0,1,3.68065,1.61474,9.31291,9.31291,0,0,1,3.463,7.40879,7.61991,7.61991,0,0,1-1.39508,4.51968,7.81414,7.81414,0,0,1-3.77959,2.72289,12.55418,12.55418,0,0,1-5.45171.59365l-.98942-.09894a14.1758,14.1758,0,0,1-5.521-1.80075,10.40553,10.40553,0,0,1-3.78949-3.72023,9.22989,9.22989,0,0,1-1.27635-5.06584,7.23873,7.23873,0,0,1,2.25588-5.38245,7.7998,7.7998,0,0,1,5.521-2.01842l-.01979,3.34425A5.14625,5.14625,0,0,0,106.66,455.1658a4.07289,4.07289,0,0,0-1.3753,3.04742,5.70189,5.70189,0,0,0,2.07779,4.63841,10.886,10.886,0,0,0,5.97611,2.30733l.5145.05937a17.33761,17.33761,0,0,0,2.61207.03958,5.948,5.948,0,0,0,3.66086-1.306A4.20127,4.20127,0,0,0,121.531,460.74614Z" fill="#fff"/><path d="M102.29668,437.11875A7.713,7.713,0,0,1,103.761,432.508a8.30323,8.30323,0,0,1,3.928-2.83766,12.10819,12.10819,0,0,1,5.4715-.62531l.43535.03958a14.38254,14.38254,0,0,1,5.6496,1.86011,10.89857,10.89857,0,0,1,3.928,3.839,9.367,9.367,0,0,1,1.32583,5.16478,7.74142,7.74142,0,0,1-1.46434,4.60279,8.15022,8.15022,0,0,1-3.87853,2.81787,12.51188,12.51188,0,0,1-5.40224.63323,14.60741,14.60741,0,0,1-5.97611-1.80075,11.16826,11.16826,0,0,1-4.1061-3.86666A9.25766,9.25766,0,0,1,102.29668,437.11875Zm11.47729,7.28214a12.33372,12.33372,0,0,0,2.59229,0,6.35823,6.35823,0,0,0,3.72023-1.39311A4.18987,4.18987,0,0,0,121.531,439.81a5.69868,5.69868,0,0,0-.88059-3.28488,7.39818,7.39818,0,0,0-2.83964-2.53292,11.98458,11.98458,0,0,0-4.21494-1.32583,18.682,18.682,0,0,0-3.06721-.05937,6.59978,6.59978,0,0,0-3.77959,1.44456,4.27727,4.27727,0,0,0-1.46434,3.20573,5.83749,5.83749,0,0,0,2.17673,4.70965,10.75134,10.75134,0,0,0,5.85738,2.3944Z" fill="#fff"/><path d="M102.67266,419.32895l2.3944.45513a8.36971,8.36971,0,0,1-2.77038-6.5104,6.59194,6.59194,0,0,1,.93006-3.4511,4.55112,4.55112,0,0,1,2.51313-1.95114,8.83859,8.83859,0,0,1-3.44319-7.104,5.66516,5.66516,0,0,1,2.15694-4.72944A7.6923,7.6923,0,0,1,110.034,394.91l14.06958,2.35482v3.56192l-14.10916-2.335a7.45439,7.45439,0,0,0-1.8799,0q-2.69222.374-2.75059,3.52234a5.40866,5.40866,0,0,0,1.217,3.55,5.62138,5.62138,0,0,0,3.29477,2.05008l14.22789,2.434v3.6015l-14.08937-2.37461a4.54825,4.54825,0,0,0-3.38382.66093,3.49328,3.49328,0,0,0-1.22688,2.86141,5.86344,5.86344,0,0,0,3.04742,5.32309l15.65265,2.711v3.58171L102.69245,422.693Z" fill="#fff"/><path d="M113.49694,372.3512a17.01551,17.01551,0,0,1,5.87717,1.76117,10.00643,10.00643,0,0,1,3.90822,3.38382,7.743,7.743,0,0,1,1.23678,4.47219,7.128,7.128,0,0,1-2.51313,5.69907l10.32956,1.91948v3.58171l-29.64308-5.145-.01979-3.2453,2.3944.39577a8.12435,8.12435,0,0,1-2.77038-6.35209,5.97423,5.97423,0,0,1,2.27567-4.80859,10.02418,10.02418,0,0,1,6.05526-1.82054,21.60374,21.60374,0,0,1,2.45377.09894Zm-.40566,3.52234-1.66025-.09894a7.48826,7.48826,0,0,0-4.41678,1.10024,3.85435,3.85435,0,0,0-1.61078,3.17407,6.3503,6.3503,0,0,0,2.94452,5.36267l10.25833,1.80075a4.4778,4.4778,0,0,0,2.92473-4.33367,5.62115,5.62115,0,0,0-2.0857-4.53947A12.05922,12.05922,0,0,0,113.09128,375.87354Z" fill="#fff"/><path d="M124.10354,356.38193a4.85782,4.85782,0,0,1-1.12794.13852l-1.12794-.05937a8.77459,8.77459,0,0,1,2.65165,6.25315,6.40171,6.40171,0,0,1-1.79085,4.60279,5.41807,5.41807,0,0,1-4.38314,1.61078,6.58094,6.58094,0,0,1-5.3132-2.98014,12.67655,12.67655,0,0,1-1.90958-7.30985l.01979-3.74-1.70181-.23746a3.90759,3.90759,0,0,0-3.03753.744,3.5687,3.5687,0,0,0-1.15762,2.81787,5.51419,5.51419,0,0,0,.90037,3.25322,3.82257,3.82257,0,0,0,2.48345,1.73347l.01979,3.6015a5.734,5.734,0,0,1-3.33435-1.46434,8.529,8.529,0,0,1-2.25588-3.30467,10.69181,10.69181,0,0,1-.76185-4.17536,7.09831,7.09831,0,0,1,2.02831-5.20436,6.295,6.295,0,0,1,5.17468-1.56329l10.6066,1.74138,1.52371.09894a7.37638,7.37638,0,0,0,2.15694-.23746l.3364.03958Zm-2.77038,5.61992a6.2663,6.2663,0,0,0-.82122-3.25718,8.27146,8.27146,0,0,0-2.38451-2.63978l-4.41282-.77175-.01979,2.711a10.26556,10.26556,0,0,0,1.06858,5.18457,3.93877,3.93877,0,0,0,3.02763,2.03821,3.057,3.057,0,0,0,2.50324-.70447A3.337,3.337,0,0,0,121.33316,362.00185Z" fill="#fff"/><path d="M102.67266,340.78864l2.711.5145a8.43905,8.43905,0,0,1-3.087-6.56976,5.31135,5.31135,0,0,1,2.09757-4.47219,8.16391,8.16391,0,0,1,5.67928-1.06858l14.03,2.335v3.58171L110.03,332.75454a7.45048,7.45048,0,0,0-1.80075-.01979,2.95908,2.95908,0,0,0-2.82579,3.26509q-.05937,3.22354,3.43923,5.65949l15.26084,2.65165v3.58171l-21.41109-3.72023Z" fill="#fff"/><path d="M118.7013,318.32877l-16.00884-7.61855v-3.95769l24.973,12.70418q5.20337,2.65363,5.145,6.80722a11.79617,11.79617,0,0,1-.35619,2.15694l-2.96827-.31662.09894-.93006a4.68371,4.68371,0,0,0-.76185-2.9366,7.0008,7.0008,0,0,0-2.72091-2.1886l-2.45377-1.28625-20.956,3.70044v-3.74Z" fill="#fff"/><rect x="59.2786" y="30.75134" width="2.02634" height="105.45653" fill="#fff"/></svg>