<svg id="Layer_1" data-name="Layer 1" xmlns="http://www.w3.org/2000/svg" viewBox="0 0 300 300"><title>white-circle-mark</title><path d="M207.89523,198.74162c-2.156,12.43877-7.79755,19.24062-15.924,19.24062-7.464,0-11.445-5.4726-11.445-16.25729V148.48026h25.04621l.82922-4.3123H180.52624V117.79685h-2.13459c-3.32744,19.28319-16.17616,29.65435-41.297,29.65435-5.37526,0-12.76912.01491-17.02549.01491-8.46624,0-12.94937-2.32495-12.94937-7.96839,0-4.6499,4.64881-7.96839,8.96518-9.46412a41.43736,41.43736,0,0,0,15.93677,2.8228c20.9164,0,32.37113-12.11826,32.37113-27.05905a24.93831,24.93831,0,0,0-4.64881-14.94079c1.826-2.32278,4.981-5.31235,8.79869-5.31235,3.81851,0,5.9767,2.15818,5.9767,5.31235a6.36536,6.36536,0,0,1-2.98848,5.9767v.33136c6.14238,0,13.61291-2.65631,13.61291-10.95578,0-5.8102-3.81851-9.46195-10.79119-9.46195-7.63594,0-12.45016,7.63486-15.60433,12.78261-5.64452-6.80808-14.94079-10.79119-26.72661-10.79119-20.751,0-32.20572,12.11826-32.20572,27.05905A25.98681,25.98681,0,0,0,113.76,128.8733c-8.1338,2.15818-16.10218,7.63486-16.10218,15.9365,0,10.12657,8.79841,15.10566,18.095,16.10137-14.11076,1.66033-23.73948,7.96839-23.73948,17.93036,0,15.10539,21.41561,21.24885,39.3438,21.24885,13.7,0,26.05927-3.35781,34.57188-9.34535V202.2228c0,16.09269,8.12674,24.21916,21.06554,24.21916,14.928,0,20.90068-11.77632,22.22775-27.70035ZM132.02175,81.56111c11.45445,0,16.93248,11.12228,16.93248,24.23625s-5.478,24.23625-16.93248,24.23625c-11.289,0-16.7668-11.12228-16.7668-24.23625S120.73271,81.56111,132.02175,81.56111Zm-.8303,115.3751c-14.77511,0-25.89766-7.30566-25.89766-19.09256,0-11.28687,7.96839-16.76572,21.24912-16.76572h18.26036c13.11505,0,20.08746,4.64746,20.08746,15.76974C164.89073,188.96593,152.10812,196.93621,131.19145,196.93621Z" fill="#fff"/><path d="M149.99783,263.205A113.205,113.205,0,1,1,263.205,149.99783,113.33294,113.33294,0,0,1,149.99783,263.205Zm0-221.96724A108.76226,108.76226,0,1,0,258.76226,149.99783,108.88071,108.88071,0,0,0,149.99783,41.23774Z" fill="#fff"/></svg>