<svg id="Layer_1" data-name="Layer 1" xmlns="http://www.w3.org/2000/svg" viewBox="0 0 500 500"><title>white-stamp</title><path d="M332.70748,325.09776c-3.12742,18.04309-11.31032,27.90895-23.09825,27.90895-10.82705,0-16.60146-7.93812-16.60146-23.58184V252.192h31.17575l1.20252-6.25516H293.00777v-38.2521h-3.096c-4.82674,27.97062-24.55531,43.01434-59.90274,43.01434-6.174,0-17.49029.02171-24.69595.02171-12.28064,0-18.78342-3.37221-18.78342-11.55825,0-6.74473,6.74315-11.55825,13.00429-13.72794,6.5012,2.65013,13.96486,4.09428,23.1165,4.09428,30.34009,0,46.9554-17.57744,46.9554-39.24979a36.17593,36.17593,0,0,0-6.74315-21.67235c2.64887-3.36906,7.22517-7.70561,12.76266-7.70561,5.53906,0,8.66963,3.13057,8.66963,7.70561,0,4.0946-1.2044,6.50309-4.335,8.66963v.48044c8.90969,0,19.74587-3.85265,19.74587-15.89165,0-8.42768-5.53875-13.72479-15.65285-13.72479-11.07624,0-18.05977,11.07466-22.63449,18.54147-8.18762-9.875-21.67235-15.65285-38.76809-15.65285-30.1,0-46.71533,17.57775-46.71533,39.2501,0,13.4863,6.98353,26.24707,20.22631,33.47224-11.79863,3.13057-23.35688,11.075-23.35688,23.11682,0,14.68882,12.76266,21.91084,26.24739,23.35531-20.46826,2.40818-34.435,11.55825-34.435,26.00858,0,21.91084,31.06406,30.82211,57.06949,30.82211,19.872,0,37.8-4.87047,50.14795-13.55584v16.649c0,23.343,11.78762,35.131,30.55593,35.131,21.65379,0,30.31713-17.08221,32.242-40.18047ZM222.6505,155.12357c16.6153,0,24.561,16.13329,24.561,35.15551s-7.94567,35.15551-24.561,35.15551c-16.37492,0-24.32091-16.13329-24.32091-35.15551S206.27558,155.12357,222.6505,155.12357Zm-1.20409,167.35552c-21.432,0-37.56526-10.59737-37.56526-27.69468,0-16.37209,11.55825-24.31933,30.82211-24.31933h26.48745c19.02348,0,29.13758,6.74158,29.13758,22.87487C270.32829,310.9177,251.78651,322.47909,221.44641,322.47909Z" fill="#fff"/><path d="M73.63034,154.58628a13.61317,13.61317,0,0,1,7.17311-6.623.72371.72371,0,0,1,.95715.42907c.29155.77012.54458,1.52924.83613,2.29936.165.41806,0,.6711-.47307.85813a10.05073,10.05073,0,0,0-5.1213,4.58771,9.75233,9.75233,0,0,0,17.47071,8.64734,13.17767,13.17767,0,0,0,1.35321-5.61637L92.0582,157.3037l-1.63375,3.295a.68587.68587,0,0,1-.92414.34105l-1.9473-.96815a.68692.68692,0,0,1-.319-.95165l3.02547-6.128a.709.709,0,0,1,.94065-.29155c2.69542,1.33671,5.47335,2.66791,8.16327,3.99912a.9647.9647,0,0,1,.40706.53358,18.76087,18.76087,0,0,1-1.9088,9.445,13.51813,13.51813,0,1,1-24.23126-11.99186Z" fill="#fff"/><path d="M88.11959,132.10979a.71173.71173,0,0,1-.13752-.99565l9.07641-11.99186a.71527.71527,0,0,1,1.00116-.13752l1.67776,1.2707a.70856.70856,0,0,1,.13752,1.00116l-7.17311,9.47247,6.117,4.63172,6.05644-8.00374a.74009.74009,0,0,1,1.00666-.13752l1.67776,1.2707a.71629.71629,0,0,1,.143,1.00116l-6.06194,8.00374,6.4415,4.87926,7.17311-9.47247a.70931.70931,0,0,1,.99565-.13752l1.65026,1.24869a.71919.71919,0,0,1,.143,1.00116l-9.08741,11.99186a.70774.70774,0,0,1-.99565.132Z" fill="#fff"/><path d="M109.01734,106.15126a.69831.69831,0,0,1,.088-.97915l.69311-.6271,24.77035,3.163.0275-.0275L122.71447,94.43444a.716.716,0,0,1,.055-1.01216l1.78778-1.61175a.75261.75261,0,0,1,1.01216.055l16.90413,18.85693a.70177.70177,0,0,1-.077.97915l-.73161.6546-25.1169-3.55355-.0275.022,12.2339,13.64762a.705.705,0,0,1-.06051,1.00666l-1.76577,1.58425a.73457.73457,0,0,1-1.00666-.055Z" fill="#fff"/><path d="M140.64175,81.23789a.71172.71172,0,0,1,.24754-.97915l12.8995-7.7067a.71247.71247,0,0,1,.97915.242l1.08367,1.80978a.7154.7154,0,0,1-.24754.97915L145.411,81.67246l3.93311,6.579,8.60884-5.1433a.73581.73581,0,0,1,.97915.24754L160.01026,85.16a.71076.71076,0,0,1-.253.97915l-8.59784,5.1433,4.13114,6.93658,10.20409-6.08945a.70019.70019,0,0,1,.96815.24754l1.06166,1.77128a.71058.71058,0,0,1-.24754.97915l-12.8995,7.7122a.714.714,0,0,1-.97915-.24754Z" fill="#fff"/><path d="M169.75777,65.63746a.71373.71373,0,0,1,.41807-.91864l9.57149-3.57556A8.115,8.115,0,0,1,190.232,65.81349a8.352,8.352,0,0,1-2.5469,9.08741l8.155,7.14011a.71153.71153,0,0,1-.22,1.24319l-2.74218,1.02316a.69452.69452,0,0,1-.67661-.10452L184.038,76.62267,178.72417,78.603l3.34452,8.97189a.73672.73672,0,0,1-.41256.92414l-2.28836.85263a.718.718,0,0,1-.91864-.42357Zm14.1702,7.58018a4.6736,4.6736,0,0,0,2.66791-5.96843,4.60552,4.60552,0,0,0-5.85841-2.5854L174.472,67.00168,177.6625,75.55Z" fill="#fff"/><path d="M204.988,79.48311l6.54052-27.0367a.88032.88032,0,0,1,.55009-.52808l.36856-.07151a.86577.86577,0,0,1,.70961.286l16.057,22.68a.66166.66166,0,0,1-.44557,1.07817l-2.32136.45107a.89237.89237,0,0,1-.96265-.39056l-3.262-4.61522L210.1423,73.66321c-.40706,1.84279-.86363,3.65257-1.2762,5.49535a.94676.94676,0,0,1-.74262.72061l-2.32136.44557A.66705.66705,0,0,1,204.988,79.48311ZM220.20336,68.4264,213.71785,59.185l-.19253.03851-2.5524,10.98521Z" fill="#fff"/><path d="M240.82056,52.25389l-6.12245.286a.71176.71176,0,0,1-.74812-.68211l-.099-2.10133a.71181.71181,0,0,1,.67661-.74812l16.156-.75912a.719.719,0,0,1,.74812.68211l.099,2.10683a.71194.71194,0,0,1-.68211.74262l-6.12245.29155,1.03416,22.05293a.732.732,0,0,1-.67661.74812l-2.48639.11552a.72185.72185,0,0,1-.73711-.67661Z" fill="#fff"/><path d="M265.17835,49.50346a.737.737,0,0,1,.76462-.6601l2.47538.18153a.73125.73125,0,0,1,.6601.75912l-1.78778,24.81435a.74069.74069,0,0,1-.76462.6601l-2.47538-.176a.74527.74527,0,0,1-.6656-.76462Z" fill="#fff"/><path d="M298.3485,53.189a13.53939,13.53939,0,1,1-16.2,10.20409A13.52309,13.52309,0,0,1,298.3485,53.189Zm-5.23131,22.724a9.77979,9.77979,0,1,0-7.30513-11.67831A9.78043,9.78043,0,0,0,293.11719,75.91306Z" fill="#fff"/><path d="M327.18948,62.60649a.696.696,0,0,1,.92964-.31355l.85813.39056,6.90907,23.95622.03851.0165L343.362,70.51672a.71934.71934,0,0,1,.95165-.35205l2.17834,1.00666a.74.74,0,0,1,.34655.95165L336.26039,95.08354a.704.704,0,0,1-.93515.31355l-.88564-.40706-6.69454-24.4348-.03851-.0165-7.66269,16.61808a.70133.70133,0,0,1-.94065.35205l-2.15083-.99015a.73542.73542,0,0,1-.34655-.94615Z" fill="#fff"/><path d="M377.59931,96.17821l-4.72523-3.91661a.71825.71825,0,0,1-.099-1.00666l1.34771-1.62275a.71956.71956,0,0,1,1.01216-.09351l12.45944,10.33611a.71185.71185,0,0,1,.088,1.00666l-1.34771,1.62275a.70585.70585,0,0,1-1.00116.09351l-4.72523-3.91661-14.10969,17.00864a.748.748,0,0,1-1.00666.09351l-1.9088-1.58975a.74192.74192,0,0,1-.099-1.00666Z" fill="#fff"/><path d="M397.892,110.77748a.734.734,0,0,1,1.00116.077l1.65026,1.9033a.71208.71208,0,0,1-.07151,1.00666L388.733,123.919c-2.84394,2.45338-3.48754,6.194-.97915,9.09291,2.53589,2.92645,6.315,2.88245,9.13692.45107l11.78833-10.20409a.722.722,0,0,1,1.01216.07151l1.65026,1.9033a.735.735,0,0,1-.077,1.00666L399.32769,136.571a10.22351,10.22351,0,0,1-13.37808-15.4629Z" fill="#fff"/><path d="M413.90495,151.66533l6.315-12.40443a.67991.67991,0,0,1,1.23769.011l1.62825,2.75043a.78292.78292,0,0,1,.03851.72061l-5.02778,9.14242.0165.033,10.47913.03851a.69526.69526,0,0,1,.59409.34655l1.63375,2.75043a.67382.67382,0,0,1-.57759,1.08367l-13.92266-.39606L409.55377,168.718a.67584.67584,0,0,1-1.23769-.0165l-1.47423-2.48639a.76511.76511,0,0,1-.03856-.72611l5.26437-9.98405-.033-.066-11.25475-.099a.832.832,0,0,1-.6161-.37956l-1.47973-2.48639a.68606.68606,0,0,1,.56659-1.12217Z" fill="#fff"/><path d="M51.78645,244.59126l23.45564,9.863a.80159.80159,0,0,1,.39606.57209l.011.34105a.80671.80671,0,0,1-.36306.59959l-22.823,11.17774a.60741.60741,0,0,1-.91314-.55559l-.06051-2.16734a.8025.8025,0,0,1,.48958-.80863l4.64822-2.27185-.34105-11.23825c-1.60075-.6436-3.16849-1.32021-4.76924-1.9583a.85414.85414,0,0,1-.53908-.77562l-.066-2.16734A.60724.60724,0,0,1,51.78645,244.59126Zm7.7562,15.35839,9.29094-4.5107-.0055-.176-9.544-3.91111Z" fill="#fff"/><path d="M81.36454,295.91424a12.48842,12.48842,0,0,1-1.14968,8.87288.6573.6573,0,0,1-.92414.25854c-.6601-.36856-1.2817-.74812-1.9363-1.12217-.36856-.19253-.39606-.47307-.176-.88014a9.14585,9.14585,0,0,0,.89664-6.23247,8.93,8.93,0,0,0-17.3497,4.19715,12.10826,12.10826,0,0,0,2.34886,4.73624l3.74608-.90214-.79212-3.27851a.6241.6241,0,0,1,.44557-.78112l1.9418-.46757a.63114.63114,0,0,1,.78662.48408l1.46873,6.08395a.63992.63992,0,0,1-.48958.75362c-2.67342.6491-5.40734,1.34221-8.08076,1.99131a.85762.85762,0,0,1-.59959-.13752,17.23613,17.23613,0,0,1-4.20815-7.76171,12.382,12.382,0,1,1,24.07174-5.8144Z" fill="#fff"/><path d="M85.33066,313.462a.65749.65749,0,0,1,.85813.34655L91.51912,326.499a.65259.65259,0,0,1-.35205.85263l-1.77678.74812a.64934.64934,0,0,1-.85263-.35205L84.324,317.72512l-6.469,2.71742,3.55905,8.47132a.67453.67453,0,0,1-.35205.85263l-1.77678.74812a.64806.64806,0,0,1-.85263-.35205l-3.55905-8.46582L68.058,324.56269l4.20815,10.02256a.64806.64806,0,0,1-.35205.85263l-1.74377.73161a.64675.64675,0,0,1-.85263-.34655l-5.33033-12.685a.65441.65441,0,0,1,.34655-.85813Z" fill="#fff"/><path d="M101.95974,343.27109a12.38232,12.38232,0,1,1-17.18467-3.38853A12.35654,12.35654,0,0,1,101.95974,343.27109ZM84.214,355.10343A8.945,8.945,0,1,0,86.68387,342.743,8.94382,8.94382,0,0,0,84.214,355.10343Z" fill="#fff"/><path d="M113.67106,360.73081a.65426.65426,0,0,1,.92414.04951l6.26547,6.96408a7.43578,7.43578,0,0,1-.45657,10.51763,7.64435,7.64435,0,0,1-8.60884.88014l-3.35,9.36245a.65529.65529,0,0,1-1.13868.231l-1.79328-1.99681a.61534.61534,0,0,1-.13752-.6161l3.72408-9.511-3.482-3.8671-6.52951,5.87491a.67974.67974,0,0,1-.92414-.04951l-1.49623-1.66676a.65214.65214,0,0,1,.04951-.92414Zm-1.70526,14.64327a4.28231,4.28231,0,0,0,5.99043.26954,4.23056,4.23056,0,0,0,.23654-5.86941l-4.09814-4.56021-6.227,5.59987Z" fill="#fff"/><path d="M140.82328,386.54632a12.51062,12.51062,0,0,1,4.23016,7.89373.66028.66028,0,0,1-.59959.74812c-.75362.08251-1.47973.132-2.23335.21453-.41256.055-.59409-.154-.6546-.61059a9.18329,9.18329,0,0,0-2.89345-5.59987,8.93955,8.93955,0,0,0-11.68932,13.5156,12.12289,12.12289,0,0,0,4.67023,2.49189l2.52489-2.91545-2.5524-2.21134a.62523.62523,0,0,1-.088-.89664l1.3037-1.50723a.63516.63516,0,0,1,.92414-.066l4.73624,4.09814a.63952.63952,0,0,1,.044.89664c-1.80428,2.08482-3.62506,4.24116-5.42384,6.326a.84905.84905,0,0,1-.56659.23654,17.20506,17.20506,0,0,1-7.94873-3.8671,12.39377,12.39377,0,0,1,16.21652-18.74691Z" fill="#fff"/><path d="M154.40489,398.53818a.65531.65531,0,0,1,.90764-.187l11.51329,7.53067a.64969.64969,0,0,1,.19253.90214l-1.05616,1.61175a.65115.65115,0,0,1-.90214.19253l-9.09841-5.95192-3.8451,5.87491,7.69019,5.02778a.6706.6706,0,0,1,.187.90214l-1.05066,1.61175a.65615.65615,0,0,1-.90764.19253l-7.68469-5.02778-4.04863,6.194,9.09841,5.94642a.65064.65064,0,0,1,.19253.90214l-1.03966,1.58425a.65006.65006,0,0,1-.90214.19253l-11.51879-7.53067a.65964.65964,0,0,1-.187-.90764Z" fill="#fff"/><path d="M176.62834,436.252l16.7556-14.95132.044-.132-9.23593-2.98146a.67066.67066,0,0,1-.41806-.81963l.61059-1.89779a.67747.67747,0,0,1,.82513-.42357l13.45784,4.34568a.67563.67563,0,0,1,.41806.81963l-.13752.42907-16.88487,15.23187-.011.033,9.566,3.086a.6511.6511,0,0,1,.41806.82513l-.59959,1.86479a.65366.65366,0,0,1-.82513.42357l-13.75214-4.44469a.67384.67384,0,0,1-.42357-.81963Z" fill="#fff"/><path d="M207.64491,422.40639a.679.679,0,0,1,.78662-.48958l2.21134.52258a.679.679,0,0,1,.48958.78662l-5.23681,22.19045a.679.679,0,0,1-.78662.48958l-2.21134-.52258a.682.682,0,0,1-.48958-.78662Z" fill="#fff"/><path d="M224.24649,425.45386a.69942.69942,0,0,1,.6711-.44557l.54458.06051a.70048.70048,0,0,1,.54458.44007l5.25882,18.25184.13752.011,9.0049-16.7116a.65675.65675,0,0,1,.6216-.31355l.54458.06051a.70212.70212,0,0,1,.56109.58309l1.72727,23.43914c.04951.48958-.22554.77562-.70411.72061l-2.22235-.23654a.72473.72473,0,0,1-.59959-.55009l-.88014-15.56742a.85311.85311,0,0,1-.099-.011l-7.86072,15.07234a.58212.58212,0,0,1-.6216.31355l-.6161-.066a.621.621,0,0,1-.53908-.44007l-4.4942-16.40355c-.033-.0055-.099-.011-.132-.0165l-4.12014,15.02283a.6563.6563,0,0,1-.6656.41256l-2.22235-.23654a.61931.61931,0,0,1-.56659-.85813Z" fill="#fff"/><path d="M257.49915,427.58269a.70108.70108,0,0,1,.58309-.56109l.55009-.044a.71533.71533,0,0,1,.61059.33555l8.50432,17.03065.13752-.011,5.83641-18.10331a.64411.64411,0,0,1,.55559-.42357l.55009-.03851a.68826.68826,0,0,1,.6546.46757l5.96293,22.78454a.59192.59192,0,0,1-.56109.84163l-2.23335.165a.71283.71283,0,0,1-.68761-.43457l-3.69657-15.17686c-.03851.0055-.10452.011-.10452.011l-5.00028,16.277a.58645.58645,0,0,1-.56109.42357l-.6161.044a.61441.61441,0,0,1-.61059-.33005l-7.40965-15.35289a1.25728,1.25728,0,0,1-.13752.011l-1.32571,15.55642a.675.675,0,0,1-.58309.52808l-2.23335.165c-.47857.03851-.74262-.253-.71511-.74262Z" fill="#fff"/><path d="M288.27643,424.56822a.65637.65637,0,0,1,.48408-.78662l13.37258-3.2345a.65821.65821,0,0,1,.79212.48408l.45107,1.87029a.65513.65513,0,0,1-.48408.79212l-10.56164,2.5524,1.64476,6.82106,8.92789-2.15634a.6671.6671,0,0,1,.78662.47857l.45657,1.87579a.6525.6525,0,0,1-.48408.78662l-8.92789,2.15633,1.73827,7.18962,10.56714-2.5524a.65334.65334,0,0,1,.78662.47857l.44557,1.84279a.64955.64955,0,0,1-.48408.78662l-13.37258,3.2345a.64986.64986,0,0,1-.78662-.48408Z" fill="#fff"/><path d="M311.545,418.24224a.66014.66014,0,0,1,.36856-.85263l8.69685-3.482a7.43422,7.43422,0,0,1,9.709,4.04863,7.65314,7.65314,0,0,1-2.13433,8.3888l7.63519,6.36449a.6521.6521,0,0,1-.17053,1.14418l-2.49739,1.00116a.63913.63913,0,0,1-.6271-.08251l-7.64619-6.77155-4.82425,1.9363,3.262,8.15227a.67781.67781,0,0,1-.36306.85263l-2.07932.83063a.64748.64748,0,0,1-.84713-.36306Zm13.16354,6.63953a4.28261,4.28261,0,0,0,2.31036-5.52836,4.2209,4.2209,0,0,0-5.42384-2.24435l-5.69338,2.28285,3.11348,7.76721Z" fill="#fff"/><path d="M354.81477,394.70958a11.9594,11.9594,0,0,1,8.68035-2.07932.63371.63371,0,0,1,.57209.77012l-.36856,2.13983c-.022.39056-.275.56659-.70961.48408a9.37042,9.37042,0,0,0-6.21046,1.47423,8.93915,8.93915,0,0,0,10.15458,14.70378,9.21331,9.21331,0,0,0,3.58656-5.22581.64081.64081,0,0,1,.6656-.50058l2.17834.37956a.66019.66019,0,0,1,.50058.78662,11.83519,11.83519,0,0,1-5.00028,7.49216,12.39507,12.39507,0,1,1-14.04918-20.42467Z" fill="#fff"/><path d="M375.87754,377.32138a12.38674,12.38674,0,1,1-.25854,17.51472A12.36829,12.36829,0,0,1,375.87754,377.32138Zm14.8193,15.34738a8.9458,8.9458,0,1,0-12.60246-.22554A8.94629,8.94629,0,0,0,390.69684,392.66877Z" fill="#fff"/><path d="M392.19308,360.49427a.69732.69732,0,0,1-.055-.80312l.319-.44557a.69312.69312,0,0,1,.6491-.253l18.47737,4.43919.08251-.11552-10.08857-16.0845a.6575.6575,0,0,1,.033-.69861l.319-.44557a.69756.69756,0,0,1,.78112-.20353l21.2498,10.08307a.58489.58489,0,0,1,.28054.96265l-1.3092,1.81528a.722.722,0,0,1-.77562.253l-13.97217-6.92558c-.022.0275-.06051.08251-.06051.08251l9.23043,14.28022a.59042.59042,0,0,1-.03851.69861l-.35756.50058a.61733.61733,0,0,1-.6491.253l-16.49156-4.19165c-.022.0275-.06051.08251-.08251.11L410.775,374.80749a.66593.66593,0,0,1,.0275.78662l-1.3037,1.81528a.62253.62253,0,0,1-1.02866.066Z" fill="#fff"/><path d="M409.61428,334.9373a.65648.65648,0,0,1-.297-.88014l3.48754-7.03559a7.68167,7.68167,0,1,1,13.77964,6.79356l-2.22235,4.47219,7.25563,3.59756a.673.673,0,0,1,.29155.87464l-.99015,2.00781a.65665.65665,0,0,1-.88019.297Zm13.84015-2.40387a4.39684,4.39684,0,0,0-2.00781-5.88041,4.24971,4.24971,0,0,0-5.64938,2.08482l-2.10683,4.25766,7.65169,3.79559Z" fill="#fff"/><path d="M439.75347,324.18863l-18.63139-17.3717a.80684.80684,0,0,1-.176-.67661l.11-.33005a.82436.82436,0,0,1,.54458-.43457l25.30943-2.61291a.60679.60679,0,0,1,.6656.83613l-.68761,2.05732a.79863.79863,0,0,1-.74262.58859l-5.1488.53358-3.57005,10.67716c1.2817,1.15518,2.52489,2.33236,3.80659,3.48754a.85917.85917,0,0,1,.242.91314l-.68761,2.06282A.60824.60824,0,0,1,439.75347,324.18863Zm-1.98031-17.11316-10.2921,1.02866-.055.165,7.61868,6.97508Z" fill="#fff"/><path d="M426.81,288.6036a.6457.6457,0,0,1-.50608-.74262l.13752-.85263,19.46752-11.92585.0055-.033-16.057-2.64591a.65209.65209,0,0,1-.53908-.74812l.35756-2.17284a.67291.67291,0,0,1,.75362-.53908l22.845,3.75708a.64836.64836,0,0,1,.50613.74812l-.143.88014-19.9461,11.85434-.0055.033,16.53557,2.71742a.65754.65754,0,0,1,.53908.75362l-.35205,2.13983a.67738.67738,0,0,1-.75362.53908Z" fill="#fff"/><path d="M442.93846,253.77769l-11.67281,7.83872a.64032.64032,0,0,1-.99015-.57209l.04951-2.5524a.686.686,0,0,1,.32455-.54458l8.91138-6.06194-8.66385-6.414a.72605.72605,0,0,1-.297-.55559l.04951-2.5854a.63979.63979,0,0,1,1.01216-.53358l11.30976,8.3998,10.99621.22a.67487.67487,0,0,1,.6436.6656l-.044,2.27735a.65944.65944,0,0,1-.6711.6381Z" fill="#fff"/></svg>