<!-- Generator: Adobe Illustrator 21.1.0, SVG Export Plug-In  -->
<svg version="1.1"
	 xmlns="http://www.w3.org/2000/svg" xmlns:xlink="http://www.w3.org/1999/xlink" xmlns:a="http://ns.adobe.com/AdobeSVGViewerExtensions/3.0/"
	 x="0px" y="0px" width="251.4212036px" height="80.1932831px" viewBox="0 0 251.4212036 80.1932831"
	 style="enable-background:new 0 0 251.4212036 80.1932831;" xml:space="preserve">
<style type="text/css">
	.st0{fill:#ffffff;}
</style>
<defs>
</defs>
<g>
	<g>
		<g>
			<g>
				<path class="st0" d="M83.8486328,44.6881561c-2.6132812,7.4794922-8.3803711,11.0842285-15.1391602,11.0842285
					c-10.09375,0-16.1308594-8.4707031-16.1308594-20.4562988h31.5400391c0-12.3461933-5.6772461-20.9970722-18.6533203-20.9970722
					c-4.9697266,0-9.6113281,1.7780762-13.2602539,4.9111328c0.2719727-3.3034668-2.5180664-5.9924316-6.0727539-5.9924316
					c-4.6586914,0-8.1933594,4.1455078-9.9057617,6.9387207c-3.0639648-3.6945801-8.1098633-5.8574219-14.5087891-5.8574219
					c-11.2641602,0-17.4819336,6.578125-17.4819336,14.6889648c0,5.0461445,2.6132812,9.8227558,7.5698242,12.526125
					c-4.4160156,1.1713867-8.7416992,4.1455078-8.7416992,8.6508789c0,5.4973145,4.7763672,8.2006836,9.8232422,8.7414551
					C5.2270508,59.8278046,0,63.2518768,0,68.6586151c0,8.2006836,11.625,11.534668,21.3579102,11.534668
					c13.7875977,0,25.1425781-6.2172852,25.1425781-16.310791c0-7.7502441-6.0380859-12.2556152-16.9423828-12.2556152h-14.328125
					c-4.5961914,0-7.0288086-1.2612305-7.0288086-4.3251953c0-2.5234375,2.5224609-4.3261719,4.8657227-5.1369629
					c2.4335938,0.9914551,5.2270508,1.5319824,8.6508789,1.5319824c11.3549805,0,17.5732422-6.5786133,17.5732422-14.6887226
					c0-2.9741211-0.8115234-5.767334-2.5234375-8.1108398c0.9912109-1.2614746,3.387207-3.1577148,5.9238281-3.1577148
					c3.8320312,0,6.4077148,3.345459,4.4262695,7.982666c-0.0859375,0.1669922-0.1611328,0.342041-0.2431641,0.512207
					c-0.0898438,0.1833496-0.1708984,0.3642578-0.2749023,0.5512695l0.1499023-0.2717285
					c-1.4428711,3.0961914-2.2822266,6.6628437-2.2822266,10.60425c0,14.4189453,9.7329102,22.7998047,21.2680664,22.7998047
					c9.9125977,0,16.9414062-5.4074707,18.6542969-15.0498047L83.8486328,44.6881561z M65.3745117,16.1210155
					c8.5615234,0,10.1835938,8.1108398,10.1835938,17.302248H52.7583008
					C53.2089844,22.7899609,58.9765625,16.1210155,65.3745117,16.1210155z M18.7446289,59.0165253h9.9125977
					c7.1186523,0,10.9038086,2.5231934,10.9038086,8.5605469c0,6.5788574-6.9389648,10.9042969-18.2929688,10.9042969
					c-8.0209961,0-14.0585938-3.9648438-14.0585938-10.3635254C7.2094727,61.9904022,11.5351562,59.0165253,18.7446289,59.0165253z
					 M21.7177734,42.1647186c-6.1274414,0-9.1015625-6.0380859-9.1015625-13.1567402
					c0-7.1193848,2.9741211-13.1569824,9.1015625-13.1569824c6.2182617,0,9.1923828,6.0375977,9.1923828,13.1569824
					C30.9101562,36.1266327,27.9360352,42.1647186,21.7177734,42.1647186z M48.4047852,23.5231152
					c0.0087891,0,0.0151367,0,0.0239258,0c-0.0356445,0.0529785-0.074707,0.1020508-0.1098633,0.1555176L48.4047852,23.5231152z"/>
				<path class="st0" d="M98.4384079,15.2197275v12.5262003c2.4327087-8.4708042,8.1101303-13.4268885,15.8602524-13.4268885
					c8.290802,0,14.0582275,5.3167524,14.0582275,15.6802511v19.194313c0,5.9480896,0.8106842,7.840126,5.1360931,9.6428146
					v0.1800079h-18.2029724v-0.1800079c4.3254089-1.8026886,5.1367493-3.694725,5.1367493-9.6428146V30.7199726
					c0-6.3981056-2.4333725-11.8955231-9.5528107-11.8955231c-7.2087936,0-12.4355392,6.8487778-12.4355392,17.1222744v13.2468796
					c0,5.9480896,0.8106842,7.840126,5.1360855,9.6428146v0.1800079H85.3715286v-0.1800079
					c4.3254013-1.8026886,5.1360931-3.694725,5.1360931-9.6428146V25.0425491c0-5.1367474-1.2613602-7.840126-5.5867691-9.6421585
					v-0.1806631H98.4384079z"/>
			</g>
		</g>
	</g>
	<path class="st0" d="M240.4975891,48.3034058l-9.1334534-14.0574837l6.2677307-7.9693127
		c4.2090912-5.2827015,6.5365448-7.8792458,11.2819214-10.5654039v-0.1791077h-11.729538v0.1791077
		c1.1640472,0.7164297,1.7013397,1.5223913,1.7013397,2.6861582c0,2.0592213-1.5221863,4.5667248-3.3123627,6.8946266
		l-5.4618073,7.0732441l-4.6568756-7.162817c-1.5213623-2.3279037-3.4916687-4.924448-3.4020081-7.1633091
		c0-0.8950443,0.268631-1.7010479,1.25354-2.3279028v-0.1791077h-16.5642548v0.1791077
		c4.6557312,2.775691,7.1623383,4.9244871,10.8339691,10.5654039l7.073822,10.8345356l-8.7753143,11.1922607
		c-1.6266022,2.0765953-2.9734039,3.7247849-4.2874298,5.1206818c-2.4853058,2.6399384-6.881073,0.9422913-6.9846649-2.6818962
		c-0.0050812-0.1818924-0.0076904-0.3680496-0.0076904-0.55867V15.5320978h-13.4302216v0.1791077
		c4.2975922,1.7910719,5.5514679,4.477191,5.5514679,9.5807848v13.1619473c0,10.2076416-5.7306213,16.8331795-12.7147827,16.8331795
		c-6.7155151,0-9.1334534-5.9095573-9.1334534-11.9086914V15.5000753h-25.6865387V0h-0.7198792
		c-1.6271973,9.9403667-5.623703,15.6971874-15.490036,17.2670746v0.592926H141.2388h0.0275269v29.085041
		c0,8.3619461,4.1810608,13.1301117,10.7502136,13.1301117c7.4208069,0,10.6838226-5.6529655,11.4815521-13.5027504h-0.6146545
		c-1.176178,5.7872849-3.7359314,8.9160309-7.620163,8.9160309c-3.6724548,0-6.0822906-3.2025452-6.0822906-8.8135071V17.8600006
		h12.0009613c2.9234161,0,5.3857574,2.1975574,5.6961975,5.1044559c0.0762177,0.7148724,0.1104736,1.4884224,0.1104736,2.3275337
		v19.0715046c0,10.2972145,5.7304382,15.5799179,13.6092072,15.5799179c7.8797302,0,13.9684753-5.0145111,16.1179352-13.878418
		v12.9828415h7.8767853h6.4486847h5.2808533v-0.1790657c-1.2538757-0.8059616-1.7015076-1.8801575-1.7015076-2.9547577
		c0-2.1487961,1.7910004-4.5663147,3.4028473-6.62603l7.8789062-10.2071495l6.8051758,10.2967262
		c1.5221863,2.3283539,3.3133392,5.0144691,3.4029999,7.1632652c0,0.8955765-0.2687988,1.7010918-1.2538757,2.3279457v0.1790657
		h16.5645752v-0.1790657C246.7653198,56.0931206,244.2580719,53.9442825,240.4975891,48.3034058z"/>
</g>
</svg>
