<svg id="Layer_1" data-name="Layer 1" xmlns="http://www.w3.org/2000/svg" viewBox="0 0 200 200"><title>white-726-outline</title><path d="M99.85754,176.51016a74.999,74.999,0,1,1,74.999-74.999A75.08433,75.08433,0,0,1,99.85754,176.51016Zm0-147.03362a72.03459,72.03459,0,1,0,72.03459,72.03459A72.11788,72.11788,0,0,0,99.85754,29.47654Z" fill="#fff"/><path d="M119.26683,52.107V51.02813H96.39657a9.98166,9.98166,0,0,1-3.721-.495L91.753,50.123,90.48118,62.12166s2.28025-5.1405,7.01642-5.1405h15.56821l-1.23519,1.73409C104.69548,68.72991,99.66981,78.02952,98.342,90.86389l-.09264.89841,7.55008-.70541V90.3814c0-11.21415,1.35292-20.18952,8.08855-30.264Z" fill="#fff"/><path d="M79.25813,136.03026H67.0049c13.21651-11.054,19.0354-16.88347,19.0354-24.06975,0-6.79739-5.42324-11.19-13.81673-11.19-7.05022,0-12.36538,4.52291-12.36538,10.52032,0,4.48334,2.94708,7.61377,7.16795,7.61377,4.6798,0,4.46983-4.72363,4.46983-4.72363a3.24375,3.24375,0,0,1-1.8991.50372c-2.47423,0-3.9526-1.7283-3.9526-4.62327,0-4.16683,2.58231-6.85915,6.5793-6.85915,5.66835,0,6.85722,4.824,6.85722,8.87019,0,6.754-3.17675,13.00807-20.53692,28.44694l-.249.33292v1.074h26.958l1.818-11.31644S83.51843,136.03026,79.25813,136.03026Z" fill="#fff"/><path d="M127.585,116.24892c-4.40036,0-7.90906,1.81708-9.98765,5.07778.00386-8.31436,2.73864-18.01251,10.43347-18.01251,3.41993,0,5.62975,1.85857,5.62975,4.73521,0,1.32783-.635,2.66723-2.0535,2.66723a3.4751,3.4751,0,0,1-1.63855-.39082s-.34077,4.44378,4.20929,4.44378c3.01849,0,5.21095-2.35651,5.21095-5.60273,0-4.86548-4.7767-8.39638-11.35793-8.39638-10.04362,0-17.05717,8.89817-17.05717,21.6399,0,9.66824,4.77863,20.07469,15.27,20.07469,7.97275,0,13.76076-5.64616,13.76076-13.42494C140.00447,119.60419,133.31516,116.24892,127.585,116.24892Zm-1.50924,2.9355c5.99066,0,7.249,5.401,7.249,9.93168,0,3.22114-.67356,10.71332-6.91319,10.71332-7.09075,0-7.64079-8.20049-7.64079-10.71332C118.77083,123.083,121.63878,119.18442,126.0758,119.18442Z" fill="#fff"/></svg>