<svg xmlns="http://www.w3.org/2000/svg" viewBox="0 0 48 47.999962" preserveAspectRatio="xMinYMid meet"><path d="M24 0C10.766 0 0 10.766 0 24s10.766 24 24 24 24-10.766 24-24S37.234 0 24 0zm0 47.058C11.285 47.058.942 36.714.942 24S11.285.942 24 .942 47.058 11.285 47.058 24 36.714 47.058 24 47.058zm8.898-8.645c-1.582 0-2.426-1.16-2.426-3.447V23.678h5.31l.175-.914h-5.485v-5.59h-.453c-.706 4.087-3.43 6.286-8.756 6.286l-3.61.003c-1.794 0-2.745-.493-2.745-1.69 0-.985.985-1.69 1.9-2.006.95.387 2.04.598 3.38.598 4.433 0 6.86-2.57 6.86-5.736 0-1.163-.316-2.254-.984-3.17.387-.49 1.056-1.125 1.865-1.125.81 0 1.268.458 1.268 1.126 0 .6-.176.952-.633 1.268v.07c1.302 0 2.886-.563 2.886-2.322 0-1.232-.81-2.006-2.287-2.006-1.62 0-2.64 1.62-3.308 2.71-1.197-1.443-3.168-2.288-5.666-2.288-4.4 0-6.83 2.57-6.83 5.737 0 1.97 1.02 3.835 2.957 4.89-1.724.46-3.414 1.62-3.414 3.38 0 2.147 1.866 3.202 3.836 3.413-2.992.352-5.033 1.69-5.033 3.802 0 3.202 4.54 4.504 8.34 4.504 2.905 0 5.525-.712 7.33-1.982v2.433c0 3.413 1.723 5.136 4.466 5.136 3.165 0 4.43-2.497 4.712-5.873h-.28c-.458 2.638-1.654 4.08-3.377 4.08zM20.188 9.49c2.43 0 3.59 2.36 3.59 5.14s-1.16 5.137-3.59 5.137c-2.393 0-3.554-2.358-3.554-5.138s1.16-5.14 3.555-5.14zm-.176 24.46c-3.132 0-5.49-1.548-5.49-4.047 0-2.393 1.69-3.554 4.505-3.554h3.87c2.782 0 4.26.984 4.26 3.342 0 2.57-2.71 4.26-7.145 4.26z"/></svg>