<?xml version="1.0" encoding="UTF-8" standalone="no"?>
<svg width="67px" height="67px" viewBox="0 0 67 67" version="1.1" xmlns="http://www.w3.org/2000/svg" xmlns:xlink="http://www.w3.org/1999/xlink">
    <!-- Generator: Sketch 41.2 (35397) - http://www.bohemiancoding.com/sketch -->
    <title>stamp-726</title>
    <desc>Created with Sketch.</desc>
    <defs></defs>
    <g id="Homepage-Final" stroke="none" stroke-width="1" fill="none" fill-rule="evenodd" opacity="0.1">
        <g id="Homepage" transform="translate(-564.000000, -4926.000000)">
            <g id="stamp-726" transform="translate(565.000000, 4927.000000)">
                <path d="M64.3820782,32.6941082 C64.3820782,50.4726048 49.9697872,64.8853989 32.1907875,64.8853989 C14.412291,64.8853989 0,50.4726048 0,32.6941082 C0,14.9156117 14.412291,0.502817525 32.1907875,0.502817525 C49.9697872,0.502817525 64.3820782,14.9156117 64.3820782,32.6941082 Z" id="Stroke-1" stroke="#1B1C1C" stroke-width="2"></path>
                <path d="M48.7398391,44.9166548 C48.7071331,44.4648083 48.6905285,43.9203787 48.6241101,43.3814839 C48.499324,42.3806793 48.2477391,41.4181156 47.6856985,40.5571921 C46.4584675,38.6783563 43.6140489,38.6375995 42.3012791,40.2276159 C41.6617503,41.0024973 41.2667621,41.8986427 41.0810925,42.8818363 C40.8586914,44.0562345 40.8078713,45.2356644 40.9588222,46.4301894 C41.0921622,47.4863427 41.3457597,48.4931853 41.8896862,49.4154955 C42.5991556,50.6190775 43.655812,51.2264034 45.0500954,51.1871561 C46.3900364,51.1494184 47.2892008,50.4318983 47.8804252,49.263035 C48.558698,47.9210813 48.6663763,46.4709461 48.7398391,44.9166548 M46.7014985,34.957416 C46.9384914,35.0198091 47.0471761,35.0499993 47.1563639,35.0761641 C48.1330164,35.3156729 48.9808574,34.7687274 49.1418718,33.7724513 C49.4644036,31.7793959 48.1662256,30.5008416 46.4076474,30.3564319 C44.1433835,30.1707623 42.6791596,31.3250337 41.6853993,33.2285248 C40.9854902,34.568969 40.6242143,36.0120598 40.4576651,37.5069771 C40.3011794,38.9093112 40.1889725,40.3121485 40.3902404,41.7894548 C40.5955337,41.4191219 40.7555416,41.0895457 40.952281,40.7826122 C41.9918297,39.1639151 43.4958041,38.3417357 45.3997984,38.2119179 C46.8011261,38.1163157 48.1440861,38.3065139 49.3828901,39.0144737 C51.1017179,39.996661 52.0164805,41.514221 52.2997651,43.4398516 C52.4778872,44.6494716 52.4290797,45.8535568 52.0532119,47.0209106 C51.3844993,49.0995049 49.9731082,50.5174372 47.9553975,51.2681665 C45.9095093,52.0299654 43.8258834,52.0380162 41.7915681,51.1705515 C40.2840716,50.5275006 39.1931996,49.399394 38.3388174,48.0302692 C37.3581395,46.45887 36.8680522,44.7269598 36.6773509,42.8939124 C36.461491,40.8238721 36.585774,38.7799966 37.2036664,36.7919729 C38.0067253,34.20719 39.4327084,32.0682154 41.8660373,30.7312934 C43.4505188,29.8603065 45.1683403,29.6338802 46.9485548,29.7918755 C48.2925212,29.9116299 49.5544709,30.2764279 50.6317574,31.1257784 C51.7503037,32.0068287 52.258002,33.1500303 52.0164805,34.5765165 C51.7825066,35.9607365 50.5411868,36.8765054 49.1418718,36.7451781 C48.3458572,36.6702058 47.6459481,36.4176146 47.1468037,35.7680225 C46.9812609,35.5526658 46.8796206,35.2874954 46.7014985,34.957416" id="Fill-3" fill="#1B1C1C"></path>
                <path d="M11.5787409,51.4710948 C12.5845772,50.5110469 13.5260078,49.627984 14.4503306,48.726807 C16.7890636,46.4454354 19.0960968,44.1348799 20.9271315,41.4016619 C22.3244339,39.315017 23.0178018,37.0351549 22.8381702,34.5177966 C22.7611853,33.4395039 22.5312367,32.396433 21.826799,31.5264525 C21.0036133,30.511056 19.8971431,30.1895305 18.6427409,30.2826169 C16.5143329,30.440109 15.3786788,31.9737704 15.2035757,33.8601538 C15.1447048,34.4901223 15.1698633,35.1185813 15.4033341,35.719366 C15.9568208,37.14233 17.2544956,37.5951828 18.6563265,37.1906343 C18.7338146,37.1684948 18.8057679,37.1277381 18.8913068,37.0910067 C18.8435056,37.8034951 17.899056,38.6855516 17.0416548,38.9235509 C14.7472008,39.5595575 12.5805518,37.9509238 12.415009,35.5764658 C12.222295,32.8201019 13.9753384,30.8854143 16.2662702,30.1789639 C18.9058987,29.3643321 21.5233877,29.5620778 23.9486659,30.9488136 C25.9673829,32.1035882 26.7784925,33.9411641 26.5621295,36.2346118 C26.3653901,38.3227662 25.2760276,39.967125 23.8676555,41.4207824 C21.9566168,43.3937109 19.7809109,45.0607123 17.6052049,46.7236883 C16.8776214,47.2796908 16.1434968,47.8261332 15.3354062,48.4349686 C15.5497565,48.4601271 15.6735362,48.4862919 15.7978192,48.4867951 C17.6187905,48.4893109 19.4402649,48.504406 21.2612363,48.4812602 C21.989826,48.4717 22.7199253,48.3952182 23.4454961,48.3157173 C24.7834245,48.1687918 25.7786942,47.4547939 26.5430091,46.3795202 C26.6904378,46.1722142 26.839376,45.9659146 26.9913333,45.7611246 C27.0089442,45.7379788 27.0512105,45.7339534 27.1105845,45.7087949 C26.8197524,47.6344255 26.530933,49.5429484 26.2401009,51.4710948 L11.5787409,51.4710948 Z" id="Fill-5" fill="#1B1C1C"></path>
                <path d="M25.7598757,13.9304053 C25.9691943,11.8362128 26.1780097,9.74151719 26.3908505,7.60908382 C28.0211205,8.06646511 29.6710141,7.86016552 31.3078253,7.87576378 C34.3706195,7.90394128 37.4344201,7.88331133 40.4977175,7.88331133 L41.1186289,7.88331133 C41.0119569,8.07602534 40.9490607,8.20785581 40.8700631,8.32911972 C39.6267306,10.2552535 38.3371066,12.1542161 37.1476133,14.1130559 C35.7332032,16.4412223 34.8732861,18.9877644 34.4179174,21.675194 C34.0355084,23.9319103 33.9831788,26.2057344 34.01035,28.4866028 C34.0123626,28.6546615 34.01035,28.8227202 34.01035,29.0516624 C32.6648741,29.1834929 31.339525,29.3138139 29.9004595,29.4552046 C30.1072622,28.2863413 30.2682766,27.1874185 30.4997346,26.1030877 C31.3093348,22.3061689 33.0674099,18.9329189 35.2189637,15.7478544 C36.1795147,14.3258967 37.1964208,12.9416768 38.187162,11.5398459 C38.2621343,11.433677 38.3305654,11.3229797 38.430193,11.1720288 C38.2923245,11.160959 38.2133268,11.1493861 38.1343292,11.1493861 C35.3940667,11.1524052 32.6548107,11.1524052 29.9145482,11.1680034 C29.5266044,11.1700161 29.1361446,11.2344218 28.7507166,11.2953054 C27.4932954,11.4945606 26.7179109,12.3081861 26.1458069,13.3723901 C26.0426571,13.5635946 25.9405136,13.7563086 25.837867,13.9480162 L25.7598757,13.9304053 Z" id="Fill-7" fill="#1B1C1C"></path>
            </g>
        </g>
    </g>
</svg>