<!-- Generator: Adobe Illustrator 21.1.0, SVG Export Plug-In  -->
<svg version="1.1"
	 xmlns="http://www.w3.org/2000/svg" xmlns:xlink="http://www.w3.org/1999/xlink" xmlns:a="http://ns.adobe.com/AdobeSVGViewerExtensions/3.0/"
	 x="0px" y="0px" width="400px" height="400px" viewBox="0 0 400 400" style="enable-background:new 0 0 400 400;"
	 xml:space="preserve">
<style type="text/css">
	.st0{fill:#F1F2F2;}
</style>
<defs>
</defs>
<rect width="400" height="400"/>
<g>
	<path class="st0" d="M291.732422,270.392853c-3.264923,18.835449-11.807312,29.134888-24.112976,29.134888
		c-11.302551,0-17.33078-8.286804-17.33078-24.617676c0-20.156433,0-80.625717,0-80.625717h37.926483l1.255463-6.529785h-39.181946
		v-39.932693h-3.231949c-5.03891,29.19957-25.011841,44.904114-62.534195,44.904114
		c-6.44519,0-19.335556,0.01973-25.780746,0.022552c-12.819992,0.005615-19.608551-3.520462-19.608551-12.066055
		c0-7.040939,7.039337-12.066071,13.575516-14.331055c6.786957,2.766541,14.578629,4.274399,24.132126,4.274399
		c31.673004,0,49.018173-18.349869,49.018173-40.974136c0-8.29641-2.263382-16.088081-7.039337-22.62426
		c2.764938-3.517273,7.542496-8.044044,13.323151-8.044044c5.782257,0,9.050339,3.268089,9.050339,8.044044
		c0,4.274391-1.25708,6.788551-4.525177,9.050339v0.501556c9.301132,0,20.613266-4.022018,20.613266-16.589638
		c0-8.797966-5.782257-14.32785-16.340454-14.32785c-11.562912,0-18.853027,11.561317-23.628983,19.356178
		c-8.547195-10.309029-22.624268-16.340462-40.470978-16.340462c-31.422241,0-48.767395,18.349876-48.767395,40.974136
		c0,14.078674,7.2901,27.400223,21.114807,34.942703c-12.316849,3.268097-24.382904,11.56131-24.382904,24.132126
		c0,15.334152,13.323135,22.873444,27.400208,24.381302c-21.367172,2.51416-35.947403,12.066071-35.947403,27.151031
		c0,22.873444,32.428543,32.176178,59.576385,32.176178c20.745026,0,39.460083-5.084442,52.350555-14.151154
		c0,0,0,13.035065,0,17.380096c0,24.36853,12.305664,36.674194,31.898224,36.674194
		c22.605103,0,31.649078-17.832336,33.658478-41.945312H291.732422z M176.840866,92.95195
		c17.345169,0,25.639984,16.84201,25.639984,36.699738s-8.294815,36.699738-25.639984,36.699738
		c-17.094391,0-25.389206-16.84201-25.389206-36.699738S159.746475,92.95195,176.840866,92.95195z M175.583786,267.659058
		c-22.373489,0-39.2155-11.062927-39.2155-28.911255c0-17.091187,12.066055-25.387604,32.176163-25.387604
		c6.91275,0,20.738251,0,27.650986,0c19.859329,0,30.417542,7.037735,30.417542,23.879745
		C226.612976,255.589813,207.25679,267.659058,175.583786,267.659058z"/>
	<path class="st0" d="M145.132462,287.283722v-0.642242h-13.614624c-0.768631,0-1.632614-0.035065-2.215103-0.294708
		l-0.549179-0.244141l-0.757141,7.142792l0,0c1.343582-2.226501,2.797607-3.06012,5.617035-3.06012h7.827545l-0.735306,1.032288
		c-4.247528,5.9617-7.239288,11.497742-8.029755,19.138031l-0.055145,0.534821l4.494553-0.419952v-0.4021
		c0-6.675781,0.805389-12.018799,4.815094-18.016113L145.132462,287.283722z"/>
	<path class="st0" d="M173.205765,303.843567c-1.718781,2.874573-3.913208,3.226715-7.741379,3.226715h-4.203873
		c7.867752-6.580383,11.331726-10.05069,11.331726-14.328674c0-4.046448-3.228439-6.661377-8.225067-6.661377
		c-4.196976,0-7.361084,2.692474-7.361084,6.262726c0,2.668915,1.754379,4.53244,4.267059,4.53244
		c1.540695,0,2.829071-1.042542,2.829071-2.811951l0,0c0,0-0.298264,0.299866-1.298721,0.299866
		c-1.4729,0-2.352966-1.028839-2.352966-2.752228c0-2.480499,1.537247-4.083221,3.916641-4.083221
		c3.374359,0,4.082092,2.871704,4.082092,5.280396c0,4.02063-1.891113,7.743683-12.225586,16.934418l-0.148209,0.198181v0.639374
		h16.048019L173.205765,303.843567L173.205765,303.843567z"/>
	<path class="st0" d="M197.73114,295.294495c-2.619522,0-4.708252,1.081726-5.945633,3.022797
		c0.002304-4.949524,1.63031-10.722809,6.211029-10.722809c2.035873,0,3.351379,1.106415,3.351379,2.818878
		c0,0.790436-0.377991,1.587799-1.222443,1.587799c-0.446411,0-0.890991-0.083313-1.13916-0.232666l0,0
		c0,1.886688,1.484985,2.645386,2.66951,2.645386c1.796906,0,3.102066-1.402832,3.102066-3.335297
		c0-2.896423-2.843567-4.998352-6.761353-4.998352c-5.978943,0-10.154099,5.297058-10.154099,12.882172
		c0,5.755493,2.844711,11.950439,9.09021,11.950439c4.746155,0,8.191742-3.361145,8.191742-7.991852
		C205.12439,297.291901,201.142258,295.294495,197.73114,295.294495z M196.832687,297.041992
		c3.566223,0,4.315323,3.21524,4.315323,5.912323c0,1.917542-0.40097,6.377625-4.115417,6.377625
		c-4.2211,0-4.548538-4.881744-4.548538-6.377625C192.484055,299.362823,194.19133,297.041992,196.832687,297.041992z"/>
</g>
</svg>